<svg id="svg" version="1.1" xmlns="http://www.w3.org/2000/svg" xmlns:xlink="http://www.w3.org/1999/xlink" width="400" height="161.9718309859155" viewBox="0, 0, 400,161.9718309859155"><g id="svgg"><path id="path0" d="M392.667 5.100 C 392.438 5.217,391.482 6.093,390.543 7.047 C 389.605 8.001,388.797 8.742,388.749 8.693 C 388.700 8.645,388.376 8.883,388.028 9.223 C 387.680 9.562,387.353 9.797,387.300 9.745 C 387.248 9.692,387.056 9.838,386.874 10.069 C 386.693 10.300,386.513 10.458,386.475 10.420 C 386.437 10.381,386.079 10.609,385.679 10.925 C 385.280 11.241,384.889 11.509,384.810 11.521 C 384.731 11.532,384.586 11.551,384.487 11.563 C 384.388 11.574,384.207 11.720,384.085 11.886 C 383.963 12.053,383.838 12.173,383.807 12.153 C 383.651 12.056,383.008 12.378,383.091 12.512 C 383.143 12.597,383.007 12.667,382.788 12.667 C 382.416 12.667,380.817 13.587,380.694 13.871 C 380.664 13.942,380.495 14.000,380.319 14.000 C 380.144 14.000,380.000 14.075,380.000 14.167 C 380.000 14.258,379.859 14.333,379.687 14.333 C 379.515 14.333,379.284 14.442,379.174 14.575 C 379.064 14.708,378.698 14.904,378.362 15.012 C 377.774 15.199,376.507 15.821,376.333 16.006 C 376.287 16.054,376.137 16.087,376.000 16.078 C 375.712 16.060,374.536 16.602,374.167 16.923 C 374.029 17.043,373.804 17.165,373.667 17.195 C 373.529 17.225,373.365 17.322,373.301 17.411 C 373.238 17.500,373.013 17.579,372.801 17.588 C 372.362 17.607,371.476 17.994,371.294 18.247 C 371.227 18.340,371.171 18.352,371.169 18.272 C 371.168 18.193,370.998 18.238,370.792 18.372 C 370.585 18.507,370.143 18.667,369.808 18.729 C 369.473 18.792,369.157 18.952,369.106 19.085 C 369.053 19.221,368.901 19.285,368.758 19.230 C 368.613 19.174,368.462 19.240,368.407 19.381 C 368.354 19.520,368.182 19.596,368.017 19.553 C 367.855 19.510,367.342 19.700,366.876 19.975 C 366.410 20.249,365.992 20.436,365.946 20.390 C 365.900 20.344,365.687 20.403,365.473 20.522 C 365.259 20.641,365.046 20.747,365.000 20.758 C 364.954 20.770,364.791 20.834,364.638 20.902 C 364.485 20.970,364.259 21.040,364.137 21.058 C 364.014 21.076,363.591 21.259,363.196 21.465 C 362.801 21.671,362.418 21.802,362.344 21.757 C 362.270 21.711,362.040 21.820,361.833 22.000 C 361.626 22.180,361.392 22.286,361.312 22.237 C 361.232 22.187,361.167 22.234,361.167 22.341 C 361.167 22.453,361.050 22.491,360.894 22.431 C 360.745 22.374,360.365 22.478,360.052 22.663 C 359.738 22.849,359.360 23.000,359.212 23.000 C 359.064 23.000,358.819 23.112,358.667 23.249 C 358.516 23.387,358.191 23.516,357.946 23.536 C 357.701 23.556,357.500 23.625,357.500 23.690 C 357.500 23.754,356.938 23.973,356.250 24.177 C 355.563 24.381,354.923 24.642,354.828 24.757 C 354.732 24.872,354.508 24.927,354.329 24.881 C 354.129 24.828,353.966 24.895,353.905 25.054 C 353.850 25.196,353.711 25.276,353.596 25.232 C 353.481 25.188,353.294 25.263,353.181 25.399 C 353.068 25.535,352.866 25.605,352.732 25.553 C 352.597 25.502,352.353 25.581,352.189 25.730 C 352.024 25.879,351.839 25.951,351.778 25.889 C 351.717 25.828,351.667 25.865,351.667 25.972 C 351.667 26.079,351.494 26.167,351.283 26.167 C 351.072 26.167,350.810 26.257,350.700 26.367 C 350.590 26.477,350.500 26.503,350.500 26.424 C 350.500 26.346,350.350 26.417,350.167 26.583 C 349.983 26.749,349.833 26.827,349.833 26.755 C 349.833 26.684,349.734 26.709,349.612 26.810 C 349.490 26.911,349.246 27.017,349.070 27.047 C 348.894 27.076,348.484 27.229,348.158 27.387 C 347.833 27.544,347.392 27.707,347.177 27.748 C 346.963 27.789,346.661 27.938,346.505 28.079 C 346.350 28.219,346.173 28.284,346.111 28.223 C 346.050 28.161,346.000 28.192,346.000 28.290 C 346.000 28.388,345.861 28.432,345.692 28.388 C 345.522 28.344,345.265 28.426,345.120 28.570 C 344.975 28.715,344.754 28.833,344.627 28.833 C 344.501 28.833,344.251 28.943,344.074 29.078 C 343.896 29.213,343.590 29.325,343.395 29.328 C 343.200 29.331,342.947 29.446,342.833 29.583 C 342.719 29.721,342.500 29.833,342.346 29.833 C 342.192 29.833,341.973 29.927,341.858 30.042 C 341.744 30.156,341.598 30.255,341.533 30.261 C 341.126 30.298,340.000 30.745,340.000 30.870 C 340.000 30.952,339.931 30.977,339.847 30.925 C 339.762 30.873,339.593 30.931,339.470 31.054 C 339.347 31.176,339.154 31.246,339.040 31.208 C 338.927 31.170,338.790 31.253,338.736 31.392 C 338.683 31.532,338.542 31.609,338.424 31.563 C 338.306 31.518,338.163 31.603,338.106 31.752 C 338.039 31.926,337.891 31.988,337.691 31.924 C 337.512 31.868,337.292 31.932,337.171 32.078 C 337.056 32.216,336.902 32.292,336.828 32.247 C 336.754 32.201,336.575 32.282,336.430 32.427 C 336.285 32.572,336.167 32.651,336.167 32.604 C 336.167 32.556,335.735 32.729,335.208 32.989 C 334.681 33.248,333.894 33.621,333.458 33.818 C 333.023 34.014,332.667 34.246,332.667 34.332 C 332.667 34.419,332.554 34.446,332.417 34.394 C 332.279 34.341,332.167 34.381,332.167 34.482 C 332.167 34.584,332.014 34.667,331.828 34.667 C 331.642 34.667,331.447 34.779,331.394 34.916 C 331.341 35.053,331.227 35.120,331.139 35.066 C 331.051 35.012,330.834 35.099,330.656 35.260 C 330.479 35.420,330.333 35.501,330.333 35.439 C 330.333 35.282,329.447 35.860,329.281 36.125 C 329.207 36.243,329.087 36.304,329.015 36.259 C 328.943 36.215,328.738 36.307,328.560 36.464 C 328.383 36.621,328.154 36.766,328.053 36.786 C 327.548 36.883,325.971 37.715,325.890 37.925 C 325.839 38.058,325.691 38.167,325.560 38.167 C 325.282 38.167,324.600 38.592,324.027 39.122 C 323.806 39.326,323.559 39.453,323.479 39.404 C 323.399 39.354,323.333 39.393,323.333 39.490 C 323.333 39.587,323.183 39.667,323.000 39.667 C 322.817 39.667,322.667 39.737,322.667 39.822 C 322.667 39.908,322.508 40.028,322.313 40.090 C 322.119 40.151,321.724 40.438,321.435 40.726 C 321.147 41.014,320.800 41.272,320.664 41.299 C 320.528 41.326,320.285 41.503,320.125 41.692 C 319.965 41.882,319.833 41.979,319.833 41.909 C 319.833 41.839,319.683 41.917,319.500 42.083 C 319.317 42.249,319.167 42.325,319.167 42.253 C 319.167 42.180,318.920 42.374,318.619 42.685 C 318.318 42.996,317.962 43.274,317.828 43.303 C 317.482 43.379,316.496 44.358,316.598 44.524 C 316.646 44.601,316.568 44.618,316.425 44.564 C 316.283 44.509,316.167 44.547,316.167 44.649 C 316.167 44.750,316.110 44.815,316.041 44.792 C 315.841 44.725,314.666 45.864,314.767 46.027 C 314.817 46.108,314.791 46.154,314.708 46.129 C 314.512 46.070,310.498 50.029,310.595 50.185 C 310.636 50.251,310.356 50.620,309.975 51.006 C 309.188 51.801,308.251 53.053,307.992 53.655 C 307.897 53.878,307.636 54.243,307.412 54.467 C 307.188 54.691,307.038 54.926,307.077 54.990 C 307.117 55.054,307.003 55.211,306.824 55.340 C 306.646 55.468,306.500 55.658,306.500 55.761 C 306.500 55.864,306.350 56.084,306.167 56.250 C 305.983 56.416,305.833 56.684,305.833 56.845 C 305.833 57.007,305.774 57.164,305.702 57.194 C 305.530 57.267,304.611 59.157,304.544 59.575 C 304.515 59.753,304.357 60.025,304.191 60.180 C 304.026 60.334,303.796 60.713,303.681 61.022 C 303.566 61.331,303.366 61.830,303.236 62.131 C 302.768 63.215,302.990 63.464,304.470 63.518 C 305.044 63.538,305.693 63.648,305.912 63.762 C 306.131 63.875,306.353 63.925,306.405 63.873 C 306.457 63.821,306.500 63.857,306.500 63.953 C 306.500 64.341,307.830 64.515,308.234 64.180 C 308.380 64.058,308.500 64.008,308.500 64.067 C 308.500 64.126,308.679 64.057,308.897 63.914 C 309.116 63.771,309.360 63.667,309.439 63.684 C 309.518 63.701,309.846 63.612,310.167 63.488 C 310.487 63.363,310.806 63.277,310.875 63.297 C 310.944 63.317,311.000 63.254,311.000 63.157 C 311.000 63.060,311.080 63.029,311.177 63.090 C 311.274 63.150,311.555 63.121,311.802 63.025 C 312.048 62.929,312.541 62.817,312.897 62.774 C 313.253 62.732,313.591 62.634,313.647 62.557 C 313.774 62.383,319.832 62.368,319.724 62.542 C 319.682 62.610,319.708 62.675,319.782 62.685 C 319.856 62.696,320.171 62.733,320.483 62.769 C 320.794 62.804,321.147 62.914,321.267 63.014 C 321.386 63.113,321.629 63.148,321.806 63.092 C 322.005 63.029,322.162 63.080,322.218 63.226 C 322.390 63.674,323.288 63.455,323.842 62.830 C 324.125 62.511,324.300 62.362,324.231 62.500 C 324.163 62.637,324.327 62.517,324.597 62.233 C 324.867 61.949,325.328 61.592,325.622 61.440 C 325.916 61.288,326.228 61.030,326.315 60.867 C 326.403 60.704,326.686 60.464,326.945 60.333 C 327.205 60.203,327.625 59.881,327.880 59.616 C 328.134 59.352,328.472 59.114,328.630 59.087 C 328.788 59.061,328.892 58.937,328.861 58.811 C 328.831 58.686,328.862 58.640,328.931 58.709 C 329.000 58.778,329.194 58.710,329.361 58.558 C 329.529 58.406,329.667 58.341,329.667 58.414 C 329.667 58.486,329.863 58.349,330.103 58.109 C 330.344 57.868,330.606 57.713,330.687 57.762 C 330.767 57.812,330.833 57.774,330.833 57.677 C 330.833 57.579,330.972 57.500,331.141 57.500 C 331.310 57.500,331.584 57.350,331.750 57.167 C 331.916 56.983,332.153 56.833,332.276 56.833 C 332.399 56.833,332.500 56.758,332.500 56.667 C 332.500 56.575,332.650 56.500,332.833 56.500 C 333.017 56.500,333.167 56.421,333.167 56.323 C 333.167 56.226,333.230 56.186,333.308 56.234 C 333.386 56.282,333.603 56.179,333.790 56.004 C 333.978 55.830,334.177 55.732,334.232 55.788 C 334.288 55.843,334.333 55.797,334.333 55.685 C 334.333 55.572,334.400 55.522,334.483 55.573 C 334.565 55.623,334.678 55.545,334.734 55.398 C 334.791 55.249,334.944 55.173,335.080 55.226 C 335.214 55.277,335.429 55.213,335.559 55.084 C 335.688 54.955,335.846 54.902,335.910 54.966 C 335.975 55.030,336.115 54.970,336.222 54.833 C 336.329 54.696,336.492 54.575,336.583 54.565 C 336.975 54.523,337.500 54.283,337.500 54.147 C 337.500 54.066,337.650 54.000,337.833 54.000 C 338.017 54.000,338.167 53.925,338.167 53.833 C 338.167 53.742,338.319 53.667,338.505 53.667 C 338.691 53.667,338.885 53.560,338.935 53.429 C 338.986 53.295,339.176 53.220,339.366 53.256 C 339.553 53.292,340.038 53.137,340.442 52.911 C 340.847 52.685,341.286 52.500,341.418 52.500 C 341.549 52.500,341.903 52.364,342.203 52.197 C 342.504 52.030,343.125 51.794,343.583 51.671 C 344.042 51.549,344.567 51.370,344.750 51.274 C 344.933 51.177,345.215 51.119,345.376 51.143 C 345.537 51.168,345.712 51.077,345.764 50.941 C 345.824 50.783,346.007 50.720,346.266 50.767 C 346.526 50.814,346.709 50.751,346.769 50.594 C 346.835 50.421,347.007 50.376,347.348 50.445 C 347.624 50.500,347.937 50.455,348.075 50.340 C 348.208 50.230,348.490 50.117,348.700 50.091 C 348.911 50.064,349.533 49.886,350.083 49.694 C 350.633 49.503,351.287 49.321,351.535 49.291 C 351.784 49.260,352.040 49.182,352.105 49.117 C 352.169 49.053,352.472 49.000,352.778 49.000 C 353.083 49.000,353.333 48.938,353.333 48.863 C 353.333 48.788,353.725 48.708,354.203 48.687 C 354.682 48.665,355.155 48.579,355.255 48.496 C 355.356 48.412,355.695 48.311,356.011 48.270 C 356.326 48.229,356.696 48.153,356.833 48.101 C 356.971 48.050,357.380 47.977,357.744 47.939 C 358.107 47.902,358.425 47.807,358.452 47.727 C 358.478 47.648,358.907 47.597,359.406 47.614 C 360.019 47.634,360.375 47.567,360.509 47.405 C 360.721 47.151,361.376 47.109,361.906 47.316 C 362.279 47.463,361.984 47.743,361.452 47.747 C 361.288 47.749,361.101 47.825,361.036 47.917 C 360.970 48.008,360.842 48.088,360.750 48.093 C 360.301 48.118,359.560 48.417,359.363 48.653 C 359.241 48.798,359.185 48.830,359.238 48.724 C 359.310 48.578,359.233 48.578,358.918 48.724 C 358.690 48.830,358.502 48.973,358.501 49.042 C 358.501 49.110,358.275 49.167,358.000 49.167 C 357.725 49.167,357.500 49.242,357.500 49.333 C 357.500 49.425,357.406 49.500,357.292 49.501 C 357.177 49.502,356.869 49.614,356.608 49.750 C 356.346 49.887,356.065 49.957,355.983 49.906 C 355.901 49.855,355.833 49.898,355.833 50.000 C 355.833 50.102,355.758 50.140,355.667 50.083 C 355.575 50.027,355.500 50.060,355.500 50.157 C 355.500 50.254,355.350 50.333,355.167 50.333 C 354.983 50.333,354.833 50.408,354.833 50.500 C 354.833 50.592,354.683 50.667,354.500 50.667 C 354.317 50.667,354.167 50.733,354.167 50.814 C 354.167 50.948,353.807 51.109,353.180 51.256 C 353.050 51.287,352.718 51.479,352.441 51.684 C 352.165 51.888,351.840 52.056,351.719 52.056 C 351.599 52.056,351.500 52.118,351.500 52.194 C 351.500 52.271,351.350 52.333,351.167 52.333 C 350.983 52.333,350.833 52.408,350.833 52.500 C 350.833 52.592,350.711 52.667,350.561 52.667 C 350.412 52.667,350.155 52.822,349.991 53.011 C 349.826 53.200,349.667 53.339,349.638 53.320 C 349.516 53.240,348.833 53.533,348.833 53.664 C 348.833 53.742,348.458 53.976,348.000 54.183 C 347.542 54.390,347.167 54.625,347.167 54.706 C 347.167 54.787,347.098 54.811,347.014 54.759 C 346.930 54.707,346.638 54.852,346.365 55.082 C 346.092 55.312,345.791 55.500,345.696 55.500 C 345.602 55.500,345.379 55.685,345.201 55.911 C 345.023 56.137,344.835 56.279,344.783 56.227 C 344.731 56.175,344.461 56.365,344.183 56.650 C 343.905 56.934,343.565 57.167,343.426 57.167 C 343.288 57.167,343.052 57.354,342.902 57.582 C 342.753 57.810,342.559 57.953,342.471 57.899 C 342.384 57.845,342.020 58.108,341.663 58.484 C 341.306 58.859,340.935 59.167,340.840 59.167 C 340.745 59.167,340.667 59.254,340.667 59.361 C 340.667 59.468,340.622 59.510,340.566 59.455 C 340.511 59.400,340.031 59.795,339.500 60.333 C 338.969 60.871,338.496 61.273,338.449 61.227 C 338.402 61.180,338.314 61.298,338.253 61.490 C 338.192 61.681,338.081 61.800,338.006 61.754 C 337.931 61.707,337.378 62.137,336.778 62.710 C 336.178 63.282,335.477 63.950,335.219 64.195 C 334.568 64.814,334.333 65.120,334.333 65.350 C 334.333 65.569,332.699 67.167,332.475 67.167 C 332.397 67.167,332.333 67.273,332.333 67.403 C 332.333 67.533,332.264 67.664,332.179 67.694 C 332.094 67.725,332.001 67.861,331.971 67.996 C 331.941 68.131,331.748 68.380,331.542 68.550 C 331.107 68.907,331.027 69.790,331.416 69.939 C 331.553 69.992,331.623 70.103,331.572 70.185 C 331.521 70.268,331.597 70.454,331.741 70.598 C 331.885 70.742,331.960 70.930,331.908 71.015 C 331.855 71.100,331.929 71.214,332.072 71.269 C 332.215 71.323,332.294 71.429,332.248 71.504 C 332.201 71.579,332.277 71.753,332.415 71.891 C 332.553 72.030,332.667 72.261,332.667 72.405 C 332.667 72.549,332.742 72.667,332.833 72.667 C 332.925 72.667,333.000 72.802,333.000 72.967 C 333.000 73.132,333.070 73.338,333.156 73.425 C 333.242 73.512,333.340 73.787,333.372 74.035 C 333.405 74.284,333.485 74.540,333.549 74.605 C 333.614 74.669,333.667 74.893,333.667 75.101 C 333.667 75.310,333.734 75.522,333.816 75.572 C 334.000 75.686,334.163 76.680,334.274 78.365 C 334.328 79.183,334.444 79.718,334.596 79.844 C 334.890 80.088,334.961 109.265,334.667 109.083 C 334.575 109.027,334.500 109.092,334.500 109.229 C 334.500 109.366,334.413 109.689,334.306 109.947 C 334.199 110.206,334.105 110.463,334.097 110.520 C 334.054 110.839,333.173 111.742,332.638 112.014 C 331.138 112.780,330.780 112.823,325.881 112.838 C 320.734 112.854,321.000 112.797,321.000 113.893 C 321.000 114.186,321.110 114.583,321.244 114.774 C 321.378 114.966,321.444 115.167,321.391 115.220 C 321.213 115.398,321.500 116.186,321.698 116.064 C 321.829 115.983,321.854 116.107,321.779 116.482 C 321.705 116.852,321.777 117.238,322.016 117.746 C 322.205 118.149,322.378 118.601,322.400 118.752 C 322.422 118.903,322.510 119.077,322.595 119.138 C 322.680 119.200,322.766 119.336,322.786 119.441 C 322.876 119.920,324.837 121.652,325.412 121.760 C 325.737 121.821,326.043 121.935,326.091 122.012 C 326.214 122.211,333.631 122.193,333.754 121.993 C 333.809 121.904,334.838 121.833,336.083 121.833 C 337.310 121.833,338.354 121.769,338.403 121.689 C 338.452 121.610,339.147 121.531,339.948 121.513 C 340.750 121.496,341.501 121.402,341.618 121.305 C 341.735 121.208,342.431 121.126,343.165 121.123 C 343.899 121.121,344.500 121.050,344.500 120.966 C 344.500 120.882,344.575 120.860,344.667 120.917 C 344.758 120.973,344.833 120.935,344.833 120.832 C 344.833 120.709,345.090 120.671,345.575 120.721 C 346.011 120.767,346.430 120.716,346.591 120.599 C 346.741 120.489,347.176 120.415,347.557 120.434 C 347.937 120.454,348.298 120.390,348.359 120.292 C 348.419 120.195,348.794 120.119,349.192 120.123 C 349.591 120.127,350.088 120.022,350.296 119.891 C 350.505 119.760,350.751 119.699,350.842 119.755 C 350.933 119.812,351.325 119.748,351.712 119.613 C 352.659 119.284,353.669 119.004,354.121 118.945 C 354.325 118.919,354.543 118.846,354.607 118.782 C 354.670 118.719,354.897 118.667,355.111 118.667 C 355.325 118.667,355.500 118.592,355.500 118.500 C 355.500 118.408,355.556 118.351,355.625 118.373 C 355.925 118.469,358.044 117.912,358.119 117.718 C 358.171 117.582,358.349 117.539,358.599 117.602 C 358.876 117.672,359.028 117.621,359.100 117.434 C 359.168 117.257,359.340 117.192,359.610 117.241 C 359.865 117.287,360.052 117.225,360.110 117.075 C 360.160 116.943,360.269 116.877,360.352 116.928 C 360.435 116.979,360.613 116.911,360.748 116.775 C 360.884 116.640,361.145 116.569,361.330 116.618 C 361.539 116.672,361.667 116.624,361.667 116.492 C 361.667 116.374,361.717 116.328,361.778 116.389 C 361.839 116.451,362.027 116.376,362.195 116.225 C 362.363 116.073,362.500 116.007,362.500 116.078 C 362.500 116.149,362.600 116.125,362.721 116.024 C 362.843 115.923,363.087 115.809,363.263 115.770 C 363.940 115.623,364.333 115.455,364.333 115.314 C 364.333 115.233,364.483 115.167,364.667 115.167 C 364.850 115.167,365.000 115.092,365.000 115.000 C 365.000 114.908,365.173 114.833,365.383 114.833 C 365.823 114.833,366.663 114.478,366.665 114.292 C 366.666 114.223,366.810 114.167,366.986 114.167 C 367.162 114.167,367.331 114.091,367.362 113.998 C 367.393 113.906,367.597 113.796,367.815 113.754 C 368.034 113.711,368.339 113.562,368.495 113.421 C 368.650 113.281,368.815 113.204,368.862 113.251 C 368.908 113.297,369.083 113.185,369.249 113.001 C 369.415 112.817,369.643 112.667,369.755 112.667 C 369.867 112.667,370.052 112.555,370.165 112.419 C 370.278 112.282,370.438 112.211,370.519 112.262 C 370.600 112.312,370.667 112.274,370.667 112.177 C 370.667 112.079,370.816 112.000,370.999 112.000 C 371.181 112.000,371.424 111.850,371.539 111.667 C 371.653 111.483,371.870 111.333,372.021 111.333 C 372.172 111.333,372.419 111.143,372.571 110.911 C 372.724 110.679,372.926 110.537,373.021 110.596 C 373.116 110.655,373.305 110.543,373.441 110.349 C 373.578 110.154,373.759 110.038,373.845 110.090 C 373.930 110.143,374.000 110.107,374.000 110.010 C 374.000 109.913,374.113 109.833,374.250 109.833 C 374.387 109.833,374.500 109.770,374.500 109.692 C 374.500 109.614,374.801 109.415,375.169 109.249 C 375.537 109.083,376.005 108.735,376.211 108.475 C 376.416 108.216,376.709 108.002,376.863 108.002 C 377.017 108.001,377.279 107.828,377.446 107.617 C 377.613 107.407,378.183 106.915,378.713 106.525 C 379.273 106.113,379.628 105.739,379.562 105.632 C 379.497 105.527,379.524 105.495,379.626 105.558 C 379.723 105.618,379.998 105.424,380.237 105.125 C 380.886 104.316,380.914 104.288,381.568 103.782 C 381.904 103.522,382.124 103.232,382.061 103.131 C 381.998 103.028,382.025 102.996,382.122 103.056 C 382.308 103.170,383.833 101.598,383.833 101.293 C 383.833 101.193,383.874 101.152,383.924 101.202 C 384.047 101.325,385.167 100.319,385.167 100.085 C 385.167 99.983,385.426 99.647,385.744 99.340 C 386.061 99.032,386.285 98.723,386.241 98.652 C 386.197 98.581,386.329 98.405,386.534 98.261 C 386.740 98.118,386.837 98.000,386.750 98.000 C 386.663 98.000,386.759 97.883,386.963 97.741 C 387.167 97.598,387.333 97.350,387.333 97.190 C 387.333 97.030,387.596 96.644,387.917 96.333 C 388.238 96.022,388.500 95.669,388.500 95.549 C 388.500 95.429,388.650 95.202,388.833 95.045 C 389.017 94.888,389.167 94.632,389.167 94.477 C 389.167 94.322,389.236 94.169,389.321 94.139 C 389.406 94.108,389.499 93.973,389.529 93.837 C 389.559 93.702,389.757 93.449,389.968 93.276 C 390.180 93.102,390.314 92.856,390.265 92.730 C 390.217 92.603,390.252 92.500,390.343 92.500 C 390.493 92.500,390.824 91.870,390.925 91.392 C 390.947 91.287,391.126 91.041,391.322 90.845 C 391.518 90.648,391.634 90.416,391.580 90.327 C 391.525 90.239,391.558 90.167,391.654 90.167 C 391.749 90.167,391.877 89.960,391.939 89.708 C 392.001 89.456,392.097 89.212,392.152 89.167 C 392.415 88.949,393.121 87.382,393.077 87.115 C 393.049 86.949,393.137 86.770,393.273 86.718 C 393.408 86.666,393.482 86.527,393.437 86.409 C 393.391 86.291,393.462 86.153,393.594 86.102 C 393.726 86.052,393.833 85.863,393.833 85.682 C 393.833 85.501,393.913 85.303,394.011 85.243 C 394.109 85.182,394.151 85.034,394.105 84.912 C 394.058 84.790,394.131 84.599,394.266 84.487 C 394.682 84.141,394.242 82.997,393.798 83.272 C 393.731 83.313,393.490 83.225,393.263 83.076 C 393.018 82.916,392.710 82.850,392.508 82.914 C 392.296 82.982,392.066 82.923,391.904 82.761 C 391.760 82.618,391.423 82.500,391.155 82.500 C 390.886 82.500,390.667 82.413,390.667 82.306 C 390.667 82.199,390.617 82.161,390.555 82.223 C 390.494 82.284,390.306 82.210,390.139 82.058 C 389.971 81.906,389.833 81.842,389.833 81.917 C 389.833 81.991,389.683 81.916,389.500 81.750 C 389.317 81.584,389.167 81.511,389.167 81.589 C 389.167 81.666,388.942 81.513,388.667 81.250 C 388.392 80.987,388.167 80.837,388.167 80.917 C 388.167 80.997,387.930 80.842,387.641 80.573 C 387.352 80.304,387.175 80.196,387.249 80.333 C 387.323 80.473,387.228 80.436,387.033 80.250 C 386.478 79.722,386.191 79.501,386.049 79.492 C 385.976 79.488,385.692 79.192,385.417 78.833 C 385.142 78.475,384.850 78.179,384.768 78.174 C 384.547 78.163,384.178 77.623,384.172 77.301 C 384.169 77.146,384.035 76.921,383.875 76.801 C 383.715 76.681,383.559 76.471,383.530 76.333 C 383.500 76.196,383.280 75.877,383.040 75.625 C 382.800 75.373,382.652 75.167,382.710 75.167 C 382.768 75.167,382.595 74.747,382.324 74.233 C 382.054 73.720,381.833 73.200,381.833 73.078 C 381.833 72.957,381.720 72.744,381.583 72.606 C 381.445 72.468,381.331 72.107,381.329 71.803 C 381.322 70.379,381.122 68.806,380.940 68.736 C 380.715 68.649,380.776 67.347,381.017 67.092 C 381.099 67.005,381.170 66.442,381.174 65.842 C 381.183 64.511,381.405 63.282,381.651 63.200 C 381.751 63.166,381.833 62.973,381.833 62.769 C 381.833 62.566,381.923 62.310,382.033 62.200 C 382.143 62.090,382.169 62.000,382.091 62.000 C 382.012 62.000,382.091 61.842,382.266 61.649 C 382.440 61.456,382.575 61.250,382.564 61.191 C 382.525 60.972,382.927 60.239,383.285 59.873 C 383.489 59.666,383.616 59.396,383.569 59.273 C 383.522 59.150,383.675 58.924,383.908 58.771 C 384.142 58.618,384.333 58.387,384.333 58.259 C 384.333 57.937,386.331 55.909,386.792 55.763 C 386.998 55.698,387.167 55.586,387.167 55.514 C 387.167 55.443,387.467 55.249,387.833 55.083 C 388.200 54.918,388.500 54.734,388.500 54.673 C 388.500 54.613,388.819 54.424,389.208 54.253 C 389.598 54.082,389.999 53.831,390.100 53.696 C 390.200 53.560,390.370 53.503,390.476 53.568 C 390.582 53.634,390.712 53.576,390.764 53.439 C 390.817 53.302,391.004 53.219,391.182 53.253 C 391.359 53.287,391.595 53.218,391.705 53.099 C 391.816 52.981,392.040 52.919,392.203 52.961 C 392.366 53.004,392.745 52.922,393.045 52.779 C 393.345 52.637,394.061 52.503,394.636 52.482 C 395.211 52.462,395.722 52.379,395.771 52.299 C 395.884 52.117,397.333 52.178,397.333 52.364 C 397.333 52.439,397.933 52.500,398.667 52.500 L 400.000 52.500 400.000 44.167 C 400.000 38.381,399.946 35.833,399.822 35.833 C 399.708 35.833,399.645 35.198,399.645 34.042 C 399.645 31.436,399.442 28.619,399.250 28.556 C 399.153 28.524,399.107 28.039,399.140 27.405 C 399.181 26.597,399.130 26.235,398.943 26.029 C 398.769 25.837,398.680 25.335,398.657 24.417 C 398.638 23.683,398.562 23.006,398.488 22.912 C 398.414 22.817,398.337 22.270,398.316 21.696 C 398.295 21.122,398.216 20.614,398.139 20.566 C 398.063 20.519,398.000 20.142,398.000 19.729 C 398.000 19.316,397.915 18.819,397.811 18.625 C 397.707 18.431,397.625 17.836,397.628 17.302 C 397.631 16.769,397.566 16.291,397.483 16.240 C 397.401 16.189,397.333 15.748,397.333 15.261 C 397.333 14.651,397.250 14.305,397.066 14.153 C 396.857 13.979,396.823 13.755,396.908 13.113 C 396.993 12.471,396.956 12.228,396.736 11.984 C 396.527 11.753,396.479 11.495,396.549 10.971 C 396.601 10.585,396.577 10.144,396.495 9.991 C 396.414 9.839,396.328 9.436,396.305 9.095 C 396.282 8.755,396.204 8.440,396.132 8.395 C 396.059 8.350,396.000 7.990,396.000 7.594 C 396.000 7.157,395.902 6.792,395.750 6.667 C 395.613 6.553,395.500 6.217,395.500 5.922 C 395.500 4.947,393.888 4.479,392.667 5.100 M0.113 46.776 C 0.051 46.838,-0.000 60.902,-0.000 78.030 L -0.000 109.171 17.958 109.127 L 35.917 109.083 35.917 104.833 C 35.917 101.556,35.869 100.579,35.708 100.563 C 35.594 100.551,29.613 100.532,22.417 100.521 L 9.333 100.500 9.333 91.246 L 9.333 81.992 21.598 82.004 C 30.749 82.014,33.922 81.967,34.098 81.821 C 34.502 81.486,34.438 73.980,34.029 73.609 C 33.751 73.358,32.642 73.333,21.529 73.333 L 9.333 73.333 9.333 64.333 L 9.333 55.333 22.083 55.333 C 29.096 55.333,34.881 55.340,34.940 55.348 C 35.390 55.408,35.556 47.225,35.112 46.857 C 34.865 46.652,0.316 46.573,0.113 46.776 M363.167 47.167 C 363.167 47.373,362.688 47.503,362.579 47.326 C 362.428 47.082,362.647 46.836,362.922 46.942 C 363.057 46.993,363.167 47.095,363.167 47.167 M279.042 58.083 C 279.044 58.450,279.078 58.580,279.118 58.373 C 279.158 58.166,279.156 57.866,279.115 57.706 C 279.073 57.547,279.040 57.717,279.042 58.083 M279.039 61.667 C 279.039 61.987,279.073 62.119,279.115 61.958 C 279.157 61.798,279.157 61.535,279.115 61.375 C 279.073 61.215,279.039 61.346,279.039 61.667 M58.667 66.828 C 58.667 66.925,58.267 67.000,57.744 67.000 C 57.183 67.000,56.664 67.103,56.418 67.264 C 56.196 67.410,55.942 67.484,55.852 67.428 C 55.763 67.373,55.643 67.404,55.585 67.497 C 55.527 67.590,55.354 67.667,55.198 67.668 C 55.043 67.668,54.702 67.781,54.439 67.918 C 54.177 68.055,53.820 68.167,53.648 68.167 C 53.475 68.167,53.333 68.229,53.333 68.306 C 53.333 68.382,53.229 68.444,53.102 68.444 C 52.754 68.444,51.667 68.993,51.667 69.169 C 51.667 69.254,51.559 69.281,51.427 69.231 C 51.291 69.179,51.093 69.289,50.970 69.486 C 50.851 69.677,50.627 69.833,50.472 69.833 C 50.317 69.833,50.052 70.002,49.883 70.208 C 49.714 70.415,49.467 70.608,49.334 70.637 C 49.023 70.707,45.672 74.025,45.669 74.266 C 45.668 74.366,45.517 74.584,45.333 74.750 C 45.150 74.916,45.000 75.141,45.000 75.250 C 45.000 75.360,44.850 75.622,44.667 75.833 C 44.483 76.045,44.333 76.319,44.333 76.442 C 44.333 76.566,44.268 76.667,44.187 76.667 C 44.068 76.667,43.344 78.121,43.318 78.411 C 43.300 78.620,42.708 80.180,42.611 80.278 C 42.550 80.339,42.500 80.551,42.500 80.750 C 42.500 80.949,42.448 81.163,42.385 81.227 C 42.321 81.290,42.247 81.509,42.221 81.713 C 42.086 82.740,41.970 83.167,41.826 83.167 C 41.738 83.167,41.667 83.642,41.667 84.222 C 41.667 84.803,41.626 85.319,41.576 85.369 C 41.526 85.418,41.485 86.978,41.485 88.833 C 41.485 90.689,41.526 92.248,41.576 92.298 C 41.626 92.348,41.667 92.772,41.667 93.241 C 41.667 93.718,41.774 94.245,41.910 94.440 C 42.044 94.631,42.172 95.065,42.195 95.405 C 42.218 95.745,42.296 96.060,42.368 96.105 C 42.441 96.150,42.500 96.333,42.500 96.512 C 42.500 96.691,42.571 96.968,42.657 97.127 C 42.743 97.286,42.945 97.735,43.106 98.125 C 43.266 98.515,43.458 98.833,43.532 98.833 C 43.606 98.833,43.667 99.049,43.667 99.313 C 43.667 99.577,43.772 99.880,43.900 99.986 C 44.029 100.093,44.180 100.365,44.237 100.590 C 44.293 100.816,44.418 101.000,44.513 101.000 C 44.608 101.000,44.640 101.075,44.583 101.167 C 44.527 101.258,44.572 101.333,44.685 101.333 C 44.797 101.333,44.838 101.384,44.775 101.447 C 44.713 101.509,44.865 101.772,45.112 102.030 C 45.360 102.289,45.499 102.500,45.422 102.500 C 45.345 102.500,45.416 102.648,45.580 102.829 C 45.744 103.011,45.945 103.118,46.026 103.067 C 46.108 103.017,46.154 103.042,46.129 103.123 C 46.069 103.319,48.342 105.597,48.539 105.538 C 48.623 105.512,48.650 105.559,48.600 105.640 C 48.549 105.722,48.656 105.923,48.837 106.087 C 49.018 106.251,49.167 106.322,49.167 106.245 C 49.167 106.167,49.378 106.307,49.637 106.554 C 49.895 106.802,50.157 106.954,50.220 106.891 C 50.282 106.829,50.333 106.878,50.333 107.000 C 50.333 107.122,50.383 107.173,50.443 107.112 C 50.504 107.052,50.658 107.152,50.786 107.334 C 50.914 107.517,51.165 107.667,51.343 107.667 C 51.521 107.667,51.667 107.742,51.667 107.833 C 51.667 107.925,51.817 108.000,52.000 108.000 C 52.183 108.000,52.333 108.079,52.333 108.177 C 52.333 108.274,52.408 108.307,52.500 108.250 C 52.592 108.193,52.667 108.226,52.667 108.323 C 52.667 108.421,52.892 108.500,53.167 108.500 C 53.442 108.500,53.667 108.556,53.668 108.625 C 53.670 108.788,54.488 109.167,54.839 109.167 C 54.989 109.167,55.163 109.219,55.227 109.283 C 55.342 109.397,55.527 109.439,56.333 109.534 C 56.563 109.560,56.794 109.642,56.848 109.715 C 57.118 110.083,66.005 110.403,66.123 110.049 C 66.148 109.971,66.467 109.936,66.831 109.971 C 67.194 110.006,67.844 109.914,68.275 109.767 C 68.707 109.620,69.256 109.500,69.496 109.500 C 69.737 109.500,70.005 109.436,70.092 109.357 C 70.241 109.222,72.220 108.760,72.414 108.815 C 72.463 108.829,72.709 108.736,72.960 108.610 C 73.211 108.483,73.510 108.413,73.625 108.453 C 73.739 108.494,73.879 108.409,73.934 108.265 C 73.990 108.120,74.113 108.050,74.209 108.110 C 74.671 108.395,74.749 107.651,74.703 103.436 C 74.673 100.733,74.596 99.191,74.494 99.253 C 74.406 99.308,74.333 99.274,74.333 99.177 C 74.333 98.938,74.074 98.954,73.800 99.208 C 73.676 99.323,73.465 99.441,73.329 99.471 C 73.194 99.501,73.058 99.594,73.028 99.679 C 72.997 99.764,72.790 99.833,72.568 99.833 C 72.345 99.833,71.831 99.989,71.426 100.180 C 71.021 100.370,70.590 100.550,70.469 100.579 C 70.349 100.609,70.083 100.686,69.880 100.751 C 69.676 100.816,69.460 100.855,69.398 100.837 C 69.337 100.819,69.241 100.877,69.185 100.966 C 69.129 101.055,68.760 101.172,68.365 101.227 C 67.969 101.282,67.582 101.366,67.505 101.414 C 67.427 101.462,67.049 101.514,66.666 101.529 C 66.260 101.544,65.932 101.649,65.883 101.778 C 65.818 101.947,65.283 102.000,63.639 102.000 C 62.242 102.000,61.517 101.941,61.583 101.833 C 61.640 101.742,61.663 101.663,61.635 101.658 C 61.607 101.654,61.246 101.612,60.833 101.565 C 60.421 101.518,59.971 101.435,59.833 101.380 C 59.696 101.325,59.524 101.293,59.452 101.309 C 59.379 101.325,59.154 101.247,58.952 101.135 C 58.749 101.024,58.439 100.909,58.263 100.880 C 58.087 100.851,57.843 100.744,57.721 100.643 C 57.600 100.542,57.500 100.517,57.500 100.589 C 57.500 100.660,57.369 100.600,57.208 100.454 C 57.048 100.309,56.842 100.176,56.750 100.157 C 56.381 100.084,56.068 99.919,55.766 99.639 C 55.592 99.477,55.374 99.391,55.282 99.448 C 55.188 99.507,55.167 99.468,55.234 99.359 C 55.299 99.253,55.290 99.167,55.213 99.167 C 54.840 99.167,53.006 97.165,52.580 96.292 C 52.323 95.765,52.052 95.333,51.979 95.333 C 51.906 95.333,51.759 95.015,51.652 94.625 C 51.545 94.235,51.326 93.617,51.165 93.250 C 50.655 92.087,50.256 86.344,50.658 85.942 C 50.754 85.846,50.833 85.486,50.833 85.143 C 50.833 84.800,50.894 84.482,50.968 84.436 C 51.042 84.390,51.206 83.861,51.331 83.260 C 51.457 82.659,51.621 82.167,51.696 82.167 C 51.772 82.167,51.833 82.026,51.833 81.854 C 51.833 81.682,51.945 81.448,52.081 81.335 C 52.218 81.222,52.291 81.066,52.243 80.988 C 52.195 80.911,52.346 80.724,52.578 80.571 C 52.810 80.419,53.000 80.203,53.000 80.090 C 53.000 79.977,53.189 79.667,53.420 79.401 C 53.651 79.135,54.008 78.674,54.212 78.378 C 54.416 78.081,54.790 77.766,55.042 77.678 C 55.294 77.590,55.500 77.444,55.500 77.354 C 55.500 77.265,55.931 76.982,56.458 76.727 C 56.985 76.471,57.442 76.203,57.472 76.131 C 57.503 76.059,57.672 76.000,57.847 76.000 C 58.023 76.000,58.167 75.927,58.167 75.839 C 58.167 75.750,58.273 75.718,58.403 75.768 C 58.533 75.818,58.833 75.732,59.070 75.577 C 59.307 75.422,59.652 75.334,59.837 75.382 C 60.021 75.431,60.265 75.383,60.378 75.277 C 60.662 75.009,64.038 75.013,64.211 75.281 C 64.289 75.403,64.557 75.443,64.916 75.385 C 65.304 75.321,65.631 75.381,65.913 75.565 C 66.176 75.738,66.487 75.801,66.749 75.735 C 67.031 75.665,67.167 75.699,67.167 75.843 C 67.167 75.960,67.217 76.005,67.278 75.944 C 67.340 75.882,67.547 75.935,67.739 76.061 C 67.931 76.187,68.331 76.343,68.627 76.408 C 68.924 76.473,69.167 76.600,69.167 76.690 C 69.167 76.780,69.236 76.810,69.322 76.757 C 69.407 76.704,69.527 76.742,69.588 76.841 C 69.685 76.998,70.435 77.356,70.667 77.357 C 70.712 77.357,70.881 77.476,71.042 77.621 C 71.202 77.766,71.333 77.835,71.333 77.774 C 71.333 77.713,71.652 77.864,72.042 78.110 C 72.431 78.356,72.787 78.563,72.833 78.570 C 72.879 78.577,72.896 78.645,72.871 78.721 C 72.846 78.796,72.902 78.811,72.996 78.753 C 73.090 78.694,73.167 78.726,73.167 78.823 C 73.167 79.098,73.544 78.955,73.871 78.557 C 74.222 78.130,74.335 70.000,73.990 70.000 C 73.893 70.000,73.854 69.935,73.903 69.856 C 74.014 69.675,73.371 69.074,73.224 69.221 C 73.165 69.280,73.034 69.218,72.933 69.084 C 72.832 68.950,72.506 68.823,72.208 68.801 C 71.910 68.780,71.667 68.699,71.667 68.621 C 71.667 68.544,71.592 68.527,71.500 68.583 C 71.408 68.640,71.333 68.607,71.333 68.510 C 71.333 68.413,71.277 68.346,71.208 68.361 C 70.994 68.407,70.088 68.122,69.993 67.978 C 69.943 67.903,69.718 67.821,69.493 67.796 C 69.268 67.771,68.982 67.654,68.857 67.536 C 68.733 67.418,68.490 67.367,68.318 67.422 C 68.145 67.477,67.836 67.404,67.631 67.261 C 67.409 67.105,66.909 67.000,66.389 67.000 C 65.911 67.000,65.477 66.931,65.424 66.846 C 65.288 66.626,58.667 66.608,58.667 66.828 M99.439 67.918 C 99.177 68.055,98.595 68.167,98.148 68.167 C 97.700 68.167,97.333 68.226,97.333 68.298 C 97.333 68.370,97.127 68.447,96.875 68.469 C 96.136 68.532,95.850 68.594,95.727 68.717 C 95.663 68.781,95.441 68.833,95.232 68.833 C 95.024 68.833,94.812 68.900,94.762 68.981 C 94.711 69.062,94.407 69.178,94.085 69.239 C 93.763 69.299,93.500 69.411,93.500 69.488 C 93.500 69.565,93.331 69.683,93.125 69.750 C 92.919 69.817,92.712 69.886,92.667 69.902 C 92.621 69.919,92.415 69.991,92.208 70.061 C 92.002 70.132,91.833 70.264,91.833 70.354 C 91.833 70.445,91.764 70.477,91.680 70.425 C 91.596 70.373,91.408 70.449,91.263 70.594 C 91.119 70.739,91.000 70.800,91.000 70.731 C 91.000 70.661,90.775 70.820,90.500 71.083 C 90.225 71.347,90.000 71.497,90.000 71.417 C 90.000 71.337,89.775 71.487,89.500 71.750 C 89.225 72.013,89.000 72.164,89.000 72.085 C 89.000 72.006,88.025 72.926,86.833 74.129 C 85.430 75.545,84.667 76.440,84.667 76.668 C 84.667 76.861,84.599 76.978,84.516 76.927 C 84.276 76.778,82.929 79.084,83.098 79.357 C 83.147 79.437,83.071 79.547,82.927 79.602 C 82.778 79.660,82.667 79.899,82.667 80.164 C 82.667 80.418,82.558 80.716,82.426 80.826 C 82.078 81.114,81.598 82.654,81.650 83.310 C 81.677 83.638,81.629 83.830,81.535 83.771 C 81.355 83.660,81.167 84.421,81.167 85.261 C 81.167 85.565,81.098 85.856,81.013 85.909 C 80.793 86.044,80.775 92.333,80.994 92.333 C 81.089 92.333,81.167 92.665,81.167 93.070 C 81.167 93.936,81.304 94.371,81.532 94.230 C 81.629 94.170,81.679 94.356,81.654 94.690 C 81.610 95.294,81.973 96.667,82.177 96.667 C 82.246 96.667,82.266 96.805,82.221 96.975 C 82.177 97.145,82.259 97.402,82.404 97.547 C 82.548 97.691,82.667 97.886,82.667 97.979 C 82.667 98.073,82.848 98.490,83.070 98.908 C 83.292 99.325,83.429 99.667,83.374 99.667 C 83.320 99.667,83.427 99.835,83.613 100.042 C 83.798 100.248,83.998 100.553,84.057 100.719 C 84.116 100.885,84.240 100.974,84.332 100.917 C 84.424 100.860,84.500 100.931,84.500 101.073 C 84.500 101.216,84.579 101.333,84.677 101.333 C 84.774 101.333,84.812 101.399,84.762 101.480 C 84.713 101.561,85.083 102.067,85.585 102.605 C 86.087 103.143,86.498 103.664,86.499 103.763 C 86.500 104.003,87.306 104.750,87.430 104.626 C 87.484 104.572,87.924 104.934,88.409 105.431 C 88.894 105.927,89.363 106.333,89.453 106.333 C 89.542 106.333,89.749 106.481,89.913 106.662 C 90.077 106.843,90.358 107.038,90.538 107.096 C 90.719 107.153,91.012 107.345,91.189 107.523 C 91.367 107.700,91.584 107.801,91.673 107.746 C 91.761 107.692,91.833 107.713,91.833 107.793 C 91.833 107.940,92.885 108.500,93.161 108.500 C 93.244 108.500,93.523 108.587,93.781 108.692 C 94.039 108.798,94.341 108.903,94.451 108.926 C 94.562 108.950,94.892 109.088,95.185 109.234 C 95.478 109.380,95.884 109.500,96.088 109.500 C 96.292 109.500,96.777 109.612,97.167 109.750 C 97.556 109.888,98.153 110.000,98.493 110.000 C 98.833 110.000,99.154 110.043,99.206 110.095 C 99.329 110.218,105.667 110.279,105.667 110.156 C 105.667 110.105,106.016 110.044,106.444 110.022 C 106.871 110.000,107.480 109.873,107.797 109.741 C 108.115 109.608,108.543 109.500,108.750 109.500 C 108.957 109.500,109.398 109.386,109.730 109.248 C 110.062 109.109,110.333 109.049,110.333 109.114 C 110.333 109.180,110.423 109.143,110.533 109.033 C 110.643 108.923,110.897 108.833,111.096 108.833 C 111.296 108.833,111.552 108.722,111.665 108.585 C 111.778 108.449,111.931 108.374,112.005 108.420 C 112.078 108.465,112.165 108.423,112.197 108.325 C 112.230 108.228,112.367 108.129,112.503 108.105 C 112.995 108.019,114.500 107.288,114.500 107.136 C 114.500 107.051,114.569 107.023,114.654 107.076 C 114.739 107.128,115.052 106.948,115.349 106.677 C 115.647 106.405,115.944 106.215,116.009 106.256 C 116.075 106.296,116.424 106.008,116.786 105.615 C 117.148 105.223,117.688 104.747,117.987 104.558 C 118.286 104.369,118.523 104.166,118.515 104.107 C 118.507 104.048,118.531 104.019,118.570 104.042 C 118.691 104.114,119.500 103.284,119.500 103.088 C 119.500 102.985,119.799 102.609,120.164 102.253 C 120.529 101.897,120.796 101.573,120.757 101.535 C 120.718 101.496,120.869 101.267,121.093 101.025 C 121.317 100.784,121.500 100.498,121.500 100.390 C 121.500 100.171,122.943 97.342,123.182 97.092 C 123.265 97.005,123.333 96.773,123.333 96.578 C 123.333 96.382,123.384 96.171,123.447 96.109 C 123.509 96.047,123.589 95.678,123.625 95.290 C 123.661 94.901,123.789 94.471,123.909 94.333 C 124.589 93.554,124.549 84.100,123.866 83.872 C 123.756 83.835,123.667 83.527,123.667 83.186 C 123.667 82.845,123.596 82.495,123.510 82.408 C 123.424 82.321,123.328 82.063,123.296 81.833 C 123.265 81.604,123.110 81.161,122.953 80.849 C 122.795 80.537,122.667 80.144,122.667 79.974 C 122.667 79.805,122.592 79.667,122.500 79.667 C 122.408 79.667,122.333 79.514,122.333 79.328 C 122.333 79.142,122.231 78.950,122.107 78.903 C 121.982 78.855,121.708 78.410,121.499 77.913 C 121.289 77.417,121.065 77.043,121.000 77.083 C 120.840 77.182,120.080 76.294,120.130 76.067 C 120.178 75.845,119.096 74.667,118.845 74.667 C 118.747 74.667,118.667 74.566,118.667 74.443 C 118.667 74.235,117.620 73.167,117.416 73.167 C 117.365 73.167,117.096 72.908,116.818 72.591 C 116.540 72.275,116.152 71.965,115.955 71.902 C 115.757 71.840,115.381 71.574,115.119 71.311 C 114.856 71.048,114.534 70.833,114.404 70.833 C 114.273 70.833,114.167 70.758,114.167 70.667 C 114.167 70.575,114.017 70.500,113.833 70.500 C 113.650 70.500,113.500 70.417,113.500 70.316 C 113.500 70.214,113.394 70.172,113.264 70.222 C 113.134 70.271,112.983 70.197,112.929 70.056 C 112.875 69.914,112.725 69.839,112.596 69.889 C 112.467 69.938,112.320 69.871,112.269 69.739 C 112.218 69.608,112.025 69.500,111.839 69.500 C 111.652 69.500,111.500 69.421,111.500 69.323 C 111.500 69.226,111.422 69.195,111.326 69.255 C 111.230 69.314,110.973 69.245,110.754 69.101 C 110.535 68.958,110.126 68.823,109.845 68.801 C 109.563 68.780,109.333 68.703,109.333 68.631 C 109.333 68.559,109.033 68.500,108.667 68.500 C 108.300 68.500,108.000 68.425,108.000 68.333 C 108.000 68.242,107.623 68.167,107.161 68.167 C 106.700 68.167,106.053 68.054,105.724 67.917 C 104.872 67.561,100.122 67.561,99.439 67.918 M104.823 76.464 C 105.378 76.448,106.838 76.812,107.075 77.025 C 107.162 77.103,107.391 77.167,107.583 77.167 C 107.776 77.167,108.023 77.257,108.133 77.367 C 108.243 77.477,108.333 77.501,108.333 77.421 C 108.333 77.341,108.518 77.449,108.744 77.661 C 108.969 77.873,109.297 78.130,109.472 78.232 C 109.646 78.333,109.983 78.554,110.219 78.722 C 110.456 78.890,110.754 79.042,110.883 79.061 C 111.259 79.116,112.667 80.639,112.667 80.992 C 112.667 81.169,112.816 81.419,112.999 81.547 C 113.182 81.675,113.282 81.829,113.221 81.890 C 113.161 81.950,113.211 82.000,113.333 82.000 C 113.456 82.000,113.510 82.045,113.455 82.101 C 113.399 82.157,113.538 82.386,113.763 82.612 C 113.989 82.837,114.133 83.086,114.084 83.166 C 114.035 83.245,114.071 83.357,114.164 83.415 C 114.257 83.473,114.333 83.651,114.333 83.812 C 114.333 83.973,114.480 84.408,114.660 84.780 C 114.840 85.152,115.005 85.732,115.028 86.070 C 115.051 86.407,115.166 86.764,115.285 86.862 C 115.600 87.124,115.572 90.770,115.250 91.333 C 115.119 91.563,115.009 91.989,115.006 92.282 C 115.003 92.574,114.925 92.860,114.833 92.917 C 114.742 92.973,114.667 93.190,114.667 93.399 C 114.667 93.607,114.610 93.834,114.542 93.903 C 114.473 93.972,114.411 94.078,114.403 94.139 C 114.367 94.431,113.673 95.810,113.511 95.910 C 113.410 95.972,113.371 96.093,113.424 96.178 C 113.477 96.264,113.436 96.333,113.333 96.333 C 113.231 96.333,113.190 96.404,113.243 96.489 C 113.409 96.758,110.479 99.554,109.664 99.906 C 109.253 100.083,108.764 100.362,108.577 100.526 C 108.391 100.690,108.091 100.849,107.911 100.879 C 107.731 100.909,107.418 101.024,107.215 101.135 C 107.013 101.247,106.788 101.325,106.715 101.309 C 106.643 101.293,106.471 101.324,106.333 101.378 C 106.110 101.465,105.271 101.630,104.708 101.697 C 104.594 101.711,104.500 101.785,104.500 101.861 C 104.500 102.142,100.880 102.023,100.590 101.733 C 100.408 101.551,100.113 101.486,99.665 101.529 C 99.269 101.566,98.978 101.515,98.933 101.400 C 98.863 101.216,98.073 100.995,97.449 100.985 C 97.284 100.983,97.107 100.873,97.057 100.741 C 97.006 100.610,96.898 100.543,96.816 100.594 C 96.734 100.645,96.667 100.607,96.667 100.510 C 96.667 100.413,96.526 100.333,96.354 100.333 C 96.182 100.333,95.948 100.222,95.835 100.085 C 95.722 99.949,95.566 99.876,95.490 99.923 C 95.220 100.090,91.990 96.623,91.579 95.724 C 91.363 95.251,91.111 94.818,91.019 94.762 C 90.927 94.705,90.802 94.319,90.739 93.905 C 90.677 93.490,90.514 93.037,90.376 92.900 C 90.203 92.727,90.152 92.450,90.211 92.007 C 90.259 91.653,90.234 91.301,90.157 91.224 C 89.955 91.021,89.926 86.775,90.127 86.708 C 90.217 86.678,90.255 86.337,90.211 85.945 C 90.152 85.425,90.202 85.178,90.399 85.015 C 90.546 84.893,90.667 84.651,90.667 84.477 C 90.667 84.304,90.731 84.032,90.809 83.873 C 90.887 83.714,91.130 83.213,91.350 82.761 C 91.570 82.309,91.881 81.803,92.042 81.636 C 92.202 81.470,92.333 81.264,92.333 81.179 C 92.333 80.954,95.056 78.259,95.342 78.201 C 95.475 78.174,95.698 78.024,95.839 77.868 C 95.980 77.711,96.204 77.559,96.338 77.528 C 96.471 77.498,96.618 77.423,96.665 77.361 C 96.712 77.299,96.975 77.225,97.250 77.196 C 97.525 77.166,97.832 77.037,97.933 76.907 C 98.034 76.778,98.163 76.719,98.221 76.776 C 98.278 76.834,98.430 76.794,98.557 76.688 C 98.685 76.582,99.099 76.478,99.477 76.456 C 99.855 76.434,100.165 76.363,100.166 76.297 C 100.167 76.079,104.071 76.063,104.210 76.280 C 104.280 76.389,104.556 76.471,104.823 76.464 M207.406 77.875 L 206.917 78.417 207.458 77.927 C 207.756 77.658,208.000 77.414,208.000 77.385 C 208.000 77.257,207.862 77.370,207.406 77.875 M330.387 79.167 C 330.387 79.762,330.417 80.006,330.454 79.708 C 330.491 79.410,330.491 78.923,330.454 78.625 C 330.417 78.327,330.387 78.571,330.387 79.167 M229.039 81.500 C 229.039 81.821,229.073 81.952,229.115 81.792 C 229.157 81.631,229.157 81.369,229.115 81.208 C 229.073 81.048,229.039 81.179,229.039 81.500 M229.045 93.833 C 229.045 94.246,229.078 94.415,229.118 94.208 C 229.157 94.002,229.157 93.665,229.118 93.458 C 229.078 93.252,229.045 93.421,229.045 93.833 M234.825 104.074 C 235.045 104.308,235.250 104.500,235.280 104.500 C 235.431 104.500,234.891 103.827,234.674 103.744 C 234.537 103.691,234.605 103.840,234.825 104.074 M131.460 129.285 C 131.668 129.324,131.968 129.323,132.127 129.281 C 132.286 129.239,132.117 129.207,131.750 129.209 C 131.383 129.211,131.253 129.245,131.460 129.285 " stroke="none" fill="#a4dc2c" fill-rule="evenodd"></path><path id="path1" d="M396.542 11.250 C 396.544 11.617,396.578 11.747,396.618 11.540 C 396.658 11.332,396.656 11.032,396.615 10.873 C 396.573 10.714,396.540 10.883,396.542 11.250 M396.858 13.438 C 396.843 13.760,396.945 14.047,397.125 14.188 C 397.379 14.387,397.392 14.384,397.223 14.167 C 397.117 14.029,396.997 13.692,396.956 13.417 L 396.883 12.917 396.858 13.438 M397.701 18.492 C 397.931 18.861,398.092 18.815,397.942 18.424 C 397.888 18.282,397.766 18.167,397.670 18.167 C 397.561 18.167,397.572 18.286,397.701 18.492 M398.693 24.688 C 398.673 25.546,398.729 25.843,398.949 26.021 C 399.192 26.219,399.209 26.216,399.074 26.000 C 398.987 25.863,398.872 25.262,398.818 24.667 L 398.719 23.583 398.693 24.688 M399.728 34.250 C 399.728 35.167,399.756 35.520,399.790 35.036 C 399.824 34.552,399.823 33.802,399.789 33.369 C 399.755 32.937,399.727 33.333,399.728 34.250 M320.997 40.921 C 320.685 41.296,320.866 41.340,321.237 40.978 C 321.414 40.807,321.479 40.667,321.383 40.667 C 321.286 40.667,321.113 40.781,320.997 40.921 M291.881 42.770 C 291.641 43.010,291.195 43.311,290.889 43.439 C 290.583 43.567,290.333 43.745,290.333 43.836 C 290.333 43.926,290.213 44.000,290.067 44.000 C 289.701 44.000,288.622 44.519,288.410 44.796 C 288.315 44.921,288.165 45.002,288.077 44.976 C 287.989 44.950,287.751 45.021,287.548 45.134 C 287.346 45.246,287.121 45.325,287.048 45.309 C 286.976 45.293,286.706 45.367,286.447 45.473 C 286.189 45.580,285.908 45.667,285.822 45.667 C 285.737 45.667,285.667 45.742,285.667 45.833 C 285.667 45.925,285.484 46.000,285.260 46.000 C 285.036 46.000,284.807 46.075,284.750 46.167 C 284.693 46.258,284.464 46.333,284.240 46.333 C 284.016 46.333,283.833 46.408,283.833 46.500 C 283.833 46.592,283.690 46.667,283.514 46.667 C 283.338 46.667,283.169 46.736,283.139 46.821 C 283.108 46.906,282.971 46.999,282.833 47.029 C 282.696 47.059,282.542 47.139,282.491 47.208 C 282.440 47.276,282.196 47.348,281.949 47.369 C 281.702 47.389,281.500 47.465,281.500 47.536 C 281.500 47.608,281.354 47.667,281.176 47.667 C 280.998 47.667,280.748 47.816,280.620 47.999 C 280.491 48.182,280.337 48.282,280.277 48.221 C 280.216 48.161,280.167 48.203,280.167 48.315 C 280.167 48.428,280.094 48.475,280.004 48.419 C 279.915 48.364,279.711 48.472,279.551 48.660 C 279.390 48.847,279.168 49.000,279.056 49.000 C 278.758 49.000,277.108 50.567,276.829 51.114 C 276.698 51.372,276.425 51.856,276.222 52.190 C 276.018 52.524,275.904 52.848,275.966 52.911 C 276.029 52.974,275.950 53.098,275.790 53.187 C 275.591 53.299,275.500 53.556,275.500 54.008 C 275.500 54.370,275.425 54.667,275.333 54.667 C 275.063 54.667,275.136 57.989,275.435 59.313 C 275.582 59.966,275.775 60.500,275.863 60.500 C 275.952 60.500,276.007 60.669,275.987 60.875 C 275.921 61.549,276.451 62.701,276.853 62.759 C 277.493 62.850,277.582 62.579,277.632 60.381 C 277.659 59.209,277.726 58.137,277.782 58.000 C 277.838 57.862,277.912 57.602,277.946 57.420 C 277.981 57.239,278.082 57.018,278.171 56.929 C 278.260 56.840,278.333 56.515,278.333 56.207 C 278.333 55.876,278.402 55.689,278.500 55.750 C 278.592 55.807,278.667 55.748,278.667 55.619 C 278.667 55.490,278.817 55.249,279.000 55.083 C 279.183 54.917,279.335 54.700,279.338 54.599 C 279.343 54.378,280.660 52.917,280.854 52.917 C 281.073 52.917,282.333 52.102,282.333 51.961 C 282.333 51.891,282.484 51.833,282.668 51.833 C 283.096 51.833,282.773 52.444,282.258 52.607 C 281.864 52.732,281.660 52.928,281.243 53.583 C 281.068 53.858,280.836 54.140,280.727 54.208 C 280.619 54.277,280.360 54.690,280.151 55.125 C 279.943 55.560,279.702 55.965,279.615 56.023 C 279.528 56.082,279.509 56.213,279.572 56.315 C 279.635 56.417,279.615 56.500,279.528 56.500 C 279.310 56.500,279.113 57.294,279.154 58.012 C 279.175 58.384,279.090 58.690,278.927 58.825 C 278.581 59.112,278.586 60.388,278.936 60.922 C 279.094 61.163,279.174 61.539,279.131 61.833 C 279.091 62.108,279.120 62.333,279.196 62.333 C 279.271 62.333,279.321 62.390,279.306 62.458 C 279.258 62.681,279.625 63.425,279.893 63.647 C 280.243 63.938,283.342 63.809,284.917 63.437 C 285.558 63.286,286.259 63.130,286.473 63.090 C 286.687 63.050,286.956 62.939,287.071 62.843 C 287.187 62.748,287.330 62.719,287.390 62.779 C 287.451 62.840,287.500 62.801,287.500 62.694 C 287.500 62.587,287.578 62.500,287.674 62.500 C 287.841 62.500,289.704 61.361,290.118 61.006 C 290.229 60.911,290.379 60.833,290.451 60.833 C 290.524 60.833,290.733 60.608,290.917 60.333 C 291.100 60.059,291.331 59.834,291.430 59.834 C 291.529 59.834,291.708 59.627,291.826 59.375 C 291.945 59.123,292.188 58.654,292.366 58.333 C 292.544 58.012,292.809 57.469,292.954 57.125 C 293.099 56.781,293.281 56.500,293.359 56.500 C 293.436 56.500,293.500 56.317,293.500 56.093 C 293.500 55.869,293.575 55.640,293.667 55.583 C 293.758 55.527,293.833 55.114,293.833 54.667 C 293.833 54.219,293.911 53.805,294.006 53.747 C 294.261 53.589,294.203 47.003,293.946 46.905 C 293.816 46.856,293.770 46.485,293.808 45.809 C 293.839 45.247,293.788 44.629,293.694 44.436 C 293.600 44.242,293.475 43.726,293.417 43.288 C 293.359 42.851,293.247 42.534,293.167 42.583 C 293.088 42.632,292.976 42.596,292.918 42.503 C 292.739 42.212,292.336 42.316,291.881 42.770 M135.293 46.509 C 135.019 46.672,135.003 48.464,135.001 78.875 C 134.999 100.004,134.941 111.125,134.833 111.234 C 134.741 111.325,134.667 111.981,134.667 112.690 C 134.667 113.400,134.592 114.027,134.500 114.083 C 134.408 114.140,134.333 114.476,134.333 114.829 C 134.333 115.183,134.274 115.497,134.202 115.528 C 134.130 115.558,133.857 116.024,133.596 116.564 C 133.166 117.451,131.959 118.833,131.614 118.833 C 131.538 118.833,131.363 118.947,131.225 119.085 C 131.086 119.223,130.904 119.294,130.820 119.242 C 130.736 119.190,130.667 119.226,130.667 119.323 C 130.667 119.421,130.517 119.500,130.333 119.500 C 130.150 119.500,130.000 119.568,130.000 119.651 C 130.000 119.859,128.546 120.008,125.583 120.103 C 124.208 120.148,123.018 120.249,122.938 120.329 C 122.765 120.502,122.724 121.779,122.886 121.942 C 122.949 122.004,123.000 122.324,123.001 122.653 C 123.002 122.981,123.114 123.465,123.251 123.727 C 123.388 123.990,123.500 124.454,123.500 124.759 C 123.500 125.064,123.575 125.360,123.667 125.417 C 123.758 125.473,123.833 125.923,123.833 126.417 C 123.833 126.910,123.908 127.360,124.000 127.417 C 124.092 127.473,124.167 127.844,124.167 128.239 C 124.167 129.000,124.452 129.405,124.874 129.243 C 125.011 129.191,125.236 129.260,125.374 129.398 C 125.741 129.765,130.593 129.764,130.961 129.396 C 131.109 129.248,131.460 129.158,131.815 129.178 C 132.146 129.196,132.529 129.170,132.667 129.119 C 132.804 129.068,133.198 128.979,133.542 128.922 C 133.885 128.865,134.167 128.747,134.167 128.659 C 134.167 128.572,134.317 128.500,134.500 128.500 C 134.683 128.500,134.833 128.425,134.833 128.333 C 134.833 128.242,135.058 128.167,135.333 128.167 C 135.608 128.167,135.833 128.100,135.833 128.018 C 135.833 127.936,136.004 127.827,136.212 127.775 C 136.420 127.722,136.754 127.527,136.955 127.340 C 137.155 127.153,137.390 127.000,137.475 127.000 C 137.561 127.000,137.676 126.883,137.731 126.739 C 137.786 126.596,137.900 126.522,137.985 126.574 C 138.070 126.627,138.258 126.551,138.403 126.406 C 138.548 126.261,138.667 126.188,138.667 126.244 C 138.667 126.299,138.910 126.061,139.208 125.714 C 139.506 125.367,139.893 124.977,140.069 124.847 C 140.615 124.441,141.667 123.261,141.667 123.054 C 141.667 122.946,141.769 122.754,141.895 122.629 C 142.152 122.372,142.683 121.395,142.656 121.229 C 142.646 121.169,142.734 121.062,142.851 120.989 C 142.968 120.917,143.091 120.648,143.126 120.390 C 143.160 120.133,143.240 119.884,143.303 119.836 C 143.639 119.582,143.854 118.825,144.106 117.000 C 144.164 116.587,144.266 116.175,144.334 116.083 C 144.403 115.992,144.473 115.243,144.490 114.420 C 144.508 113.596,144.593 112.879,144.678 112.826 C 144.774 112.767,144.818 100.011,144.792 79.573 L 144.750 46.417 140.167 46.376 C 137.231 46.351,135.479 46.398,135.293 46.509 M257.446 46.634 C 257.195 46.911,257.165 47.905,257.126 57.178 L 257.083 67.417 256.583 67.359 C 256.308 67.327,255.990 67.224,255.875 67.130 C 255.760 67.036,255.667 66.999,255.667 67.048 C 255.667 67.097,255.235 67.034,254.708 66.908 C 254.181 66.782,253.356 66.676,252.875 66.673 C 252.394 66.669,252.000 66.592,252.000 66.500 C 252.000 66.288,245.631 66.272,245.408 66.484 C 245.321 66.567,244.912 66.669,244.500 66.711 C 244.088 66.753,243.338 66.912,242.833 67.064 C 242.329 67.217,241.842 67.360,241.750 67.384 C 241.658 67.407,241.475 67.494,241.342 67.577 C 241.209 67.660,240.923 67.735,240.707 67.745 C 240.491 67.754,240.262 67.838,240.199 67.931 C 240.135 68.024,239.671 68.302,239.167 68.549 C 238.222 69.012,238.077 69.097,236.889 69.875 C 236.505 70.127,236.151 70.333,236.103 70.333 C 235.883 70.333,232.991 73.329,232.598 73.964 C 232.354 74.357,232.008 74.825,231.828 75.006 C 231.647 75.186,231.500 75.446,231.500 75.583 C 231.500 75.721,231.412 75.833,231.306 75.833 C 231.199 75.833,231.160 75.883,231.221 75.943 C 231.281 76.003,231.245 76.156,231.140 76.282 C 230.859 76.620,229.833 78.699,229.833 78.930 C 229.833 79.039,229.721 79.343,229.584 79.606 C 229.447 79.869,229.335 80.210,229.334 80.365 C 229.334 80.520,229.271 80.686,229.194 80.733 C 229.118 80.780,229.090 81.051,229.131 81.335 C 229.181 81.675,229.119 81.918,228.949 82.050 C 228.516 82.386,228.072 91.000,228.488 91.000 C 228.595 91.000,228.667 91.400,228.667 92.005 C 228.667 92.764,228.731 93.035,228.928 93.111 C 229.115 93.183,229.180 93.405,229.155 93.897 C 229.116 94.700,229.302 95.500,229.528 95.500 C 229.615 95.500,229.642 95.572,229.588 95.660 C 229.533 95.748,229.566 95.973,229.661 96.160 C 229.756 96.347,229.908 96.649,230.000 96.831 C 230.092 97.013,230.167 97.276,230.167 97.414 C 230.167 97.553,230.242 97.667,230.333 97.667 C 230.425 97.667,230.500 97.763,230.500 97.881 C 230.500 98.000,230.650 98.390,230.833 98.750 C 231.017 99.110,231.167 99.487,231.167 99.590 C 231.167 99.692,231.354 99.951,231.583 100.167 C 231.813 100.382,232.000 100.646,232.000 100.753 C 232.000 100.861,232.150 101.084,232.333 101.250 C 232.517 101.416,232.667 101.641,232.667 101.750 C 232.667 101.948,234.427 103.715,234.756 103.847 C 234.851 103.885,235.100 104.160,235.309 104.458 C 235.518 104.756,235.784 105.000,235.899 105.000 C 236.014 105.000,236.283 105.186,236.497 105.414 C 236.862 105.802,239.138 107.024,239.650 107.107 C 239.778 107.128,239.928 107.206,239.983 107.281 C 240.124 107.474,241.201 107.833,241.637 107.833 C 241.837 107.833,242.000 107.908,242.000 108.000 C 242.000 108.092,242.183 108.167,242.407 108.167 C 242.631 108.167,242.860 108.242,242.917 108.333 C 242.973 108.425,243.503 108.500,244.093 108.500 C 244.703 108.500,245.167 108.573,245.167 108.668 C 245.167 108.779,248.711 108.821,255.708 108.793 L 266.250 108.750 266.250 77.583 L 266.250 46.417 261.987 46.372 C 258.029 46.331,257.703 46.350,257.446 46.634 M360.605 47.299 C 360.560 47.371,360.781 47.400,361.095 47.364 C 361.409 47.327,361.667 47.268,361.667 47.232 C 361.667 47.106,360.686 47.168,360.605 47.299 M393.877 52.620 C 394.131 52.658,394.506 52.657,394.711 52.617 C 394.916 52.578,394.708 52.546,394.250 52.548 C 393.792 52.549,393.624 52.581,393.877 52.620 M398.292 52.618 C 398.498 52.657,398.835 52.657,399.042 52.618 C 399.248 52.578,399.079 52.545,398.667 52.545 C 398.254 52.545,398.085 52.578,398.292 52.618 M307.583 54.000 C 307.417 54.183,307.366 54.333,307.468 54.333 C 307.571 54.333,307.735 54.183,307.833 54.000 C 307.931 53.817,307.983 53.667,307.948 53.667 C 307.914 53.667,307.749 53.817,307.583 54.000 M348.167 53.917 C 347.903 54.235,348.150 54.232,348.574 53.911 C 348.833 53.715,348.845 53.667,348.636 53.667 C 348.492 53.667,348.281 53.779,348.167 53.917 M386.082 56.168 C 385.649 56.646,385.841 56.700,386.298 56.228 C 386.507 56.011,386.612 55.833,386.532 55.833 C 386.451 55.833,386.249 55.984,386.082 56.168 M384.692 57.605 C 384.476 57.834,384.332 58.054,384.370 58.093 C 384.409 58.131,384.656 57.939,384.918 57.665 C 385.181 57.391,385.325 57.171,385.240 57.177 C 385.154 57.182,384.907 57.375,384.692 57.605 M339.254 60.329 C 338.804 60.786,338.470 61.186,338.510 61.218 C 338.550 61.251,338.980 60.878,339.466 60.389 C 339.951 59.900,340.286 59.500,340.209 59.500 C 340.133 59.500,339.703 59.873,339.254 60.329 M303.185 61.852 C 303.063 62.127,302.999 62.388,303.043 62.432 C 303.086 62.475,303.217 62.281,303.333 62.000 C 303.609 61.334,303.474 61.199,303.185 61.852 M336.533 62.738 C 336.104 63.143,335.790 63.504,335.835 63.540 C 335.880 63.576,336.283 63.244,336.730 62.803 C 337.751 61.795,337.588 61.741,336.533 62.738 M323.968 62.625 C 323.514 63.153,323.451 63.427,323.897 62.932 C 324.137 62.666,324.333 62.422,324.333 62.391 C 324.333 62.266,324.207 62.347,323.968 62.625 M381.360 63.861 C 381.345 64.106,381.285 64.443,381.225 64.611 C 381.143 64.845,381.165 64.873,381.321 64.730 C 381.435 64.624,381.494 64.296,381.455 63.980 C 381.400 63.522,381.382 63.500,381.360 63.861 M333.413 66.171 C 332.964 66.627,332.644 67.000,332.703 67.000 C 332.873 67.000,334.390 65.502,334.306 65.417 C 334.264 65.375,333.862 65.714,333.413 66.171 M164.408 66.485 C 164.321 66.569,163.837 66.670,163.333 66.710 C 162.829 66.750,162.004 66.908,161.500 67.062 C 160.996 67.216,160.508 67.360,160.417 67.384 C 160.325 67.407,160.137 67.497,160.000 67.583 C 159.862 67.670,159.639 67.757,159.503 67.778 C 159.367 67.798,159.230 67.894,159.197 67.991 C 159.165 68.088,159.001 68.167,158.833 68.167 C 158.665 68.167,158.503 68.223,158.472 68.292 C 158.442 68.360,157.989 68.630,157.467 68.891 C 156.944 69.151,156.289 69.583,156.010 69.849 C 155.731 70.115,155.427 70.333,155.335 70.333 C 155.242 70.333,155.167 70.396,155.167 70.473 C 155.167 70.550,154.829 70.944,154.416 71.348 L 153.666 72.083 153.708 76.399 C 153.759 81.648,153.741 81.613,155.667 80.245 C 156.446 79.692,157.555 78.668,157.386 78.660 C 157.311 78.657,157.494 78.548,157.792 78.418 C 158.090 78.289,158.333 78.104,158.333 78.008 C 158.333 77.912,158.446 77.833,158.583 77.833 C 158.721 77.833,158.833 77.770,158.833 77.692 C 158.833 77.614,159.340 77.295,159.958 76.984 C 160.577 76.673,161.108 76.362,161.139 76.292 C 161.169 76.223,161.298 76.167,161.425 76.167 C 161.553 76.167,161.921 76.018,162.244 75.837 C 162.868 75.486,163.257 75.376,164.575 75.176 C 165.028 75.108,165.428 74.965,165.464 74.859 C 165.550 74.601,168.947 74.591,169.033 74.849 C 169.085 75.004,170.076 75.296,170.792 75.368 C 170.906 75.379,171.000 75.451,171.000 75.528 C 171.000 75.604,171.112 75.667,171.250 75.667 C 171.387 75.667,171.500 75.724,171.500 75.794 C 171.500 75.864,171.801 76.107,172.169 76.335 C 172.540 76.564,172.802 76.841,172.758 76.957 C 172.713 77.072,172.862 77.287,173.089 77.436 C 173.365 77.617,173.500 77.859,173.500 78.176 C 173.500 78.435,173.575 78.693,173.667 78.750 C 173.758 78.807,173.833 79.069,173.833 79.333 C 173.833 79.598,173.908 79.860,174.000 79.917 C 174.095 79.976,174.167 80.834,174.167 81.923 L 174.167 83.827 173.708 83.925 C 173.456 83.979,173.078 84.093,172.867 84.178 C 172.657 84.264,172.338 84.333,172.159 84.333 C 171.980 84.333,171.833 84.408,171.833 84.500 C 171.833 84.592,171.608 84.667,171.333 84.667 C 171.058 84.667,170.833 84.742,170.833 84.833 C 170.833 84.925,170.623 85.000,170.367 85.000 C 170.110 85.000,169.829 85.061,169.742 85.135 C 169.593 85.263,167.276 86.025,166.917 86.065 C 166.825 86.075,166.708 86.139,166.657 86.208 C 166.606 86.276,166.363 86.348,166.116 86.369 C 165.869 86.389,165.667 86.465,165.667 86.536 C 165.667 86.608,165.498 86.669,165.292 86.672 C 165.085 86.675,164.771 86.787,164.593 86.922 C 164.415 87.057,164.130 87.167,163.960 87.167 C 163.790 87.167,163.340 87.317,162.961 87.500 C 162.581 87.683,162.135 87.833,161.969 87.833 C 161.803 87.833,161.667 87.908,161.667 88.000 C 161.667 88.092,161.517 88.167,161.333 88.167 C 161.150 88.167,161.000 88.242,161.000 88.333 C 161.000 88.425,160.858 88.500,160.684 88.500 C 160.511 88.500,160.329 88.605,160.279 88.733 C 160.230 88.861,159.922 89.055,159.595 89.163 C 159.268 89.271,159.000 89.433,159.000 89.523 C 159.000 89.613,158.929 89.642,158.842 89.589 C 158.755 89.535,158.600 89.646,158.498 89.836 C 158.397 90.026,157.943 90.410,157.490 90.689 C 157.037 90.967,156.667 91.264,156.667 91.348 C 156.667 91.431,156.569 91.500,156.450 91.500 C 156.331 91.500,156.050 91.802,155.825 92.172 C 155.600 92.542,155.244 93.048,155.032 93.297 C 154.577 93.832,154.084 94.698,154.132 94.875 C 154.151 94.944,154.095 95.000,154.008 95.000 C 153.920 95.000,153.799 95.263,153.739 95.583 C 153.679 95.904,153.580 96.167,153.519 96.167 C 153.110 96.167,152.789 100.937,153.152 101.627 C 153.236 101.786,153.432 102.423,153.588 103.042 C 153.743 103.660,153.941 104.167,154.028 104.167 C 154.115 104.167,154.142 104.239,154.087 104.327 C 154.033 104.416,154.134 104.634,154.313 104.813 C 154.492 104.992,154.591 105.186,154.533 105.244 C 154.404 105.374,157.300 108.167,157.564 108.167 C 157.668 108.167,157.847 108.317,157.961 108.500 C 158.076 108.683,158.319 108.833,158.501 108.833 C 158.684 108.833,158.833 108.908,158.833 109.000 C 158.833 109.092,159.058 109.167,159.333 109.167 C 159.608 109.167,159.833 109.242,159.833 109.333 C 159.833 109.425,160.119 109.500,160.468 109.500 C 160.817 109.500,161.249 109.610,161.426 109.745 C 161.672 109.931,162.270 109.989,163.917 109.989 C 165.564 109.989,166.161 109.931,166.407 109.745 C 166.587 109.608,167.085 109.500,167.532 109.500 C 167.973 109.500,168.333 109.425,168.333 109.333 C 168.333 109.242,168.633 109.167,169.000 109.167 C 169.367 109.167,169.667 109.092,169.667 109.000 C 169.667 108.908,169.792 108.833,169.945 108.833 C 170.229 108.833,171.942 108.199,173.000 107.703 C 173.321 107.552,173.646 107.426,173.722 107.423 C 173.798 107.420,173.965 107.274,174.092 107.099 C 174.320 106.788,174.326 106.788,174.442 107.099 C 174.507 107.274,174.953 107.813,175.433 108.296 L 176.307 109.176 180.737 109.161 C 183.377 109.152,185.167 109.083,185.167 108.990 C 185.167 108.904,185.317 108.833,185.500 108.833 C 185.683 108.833,185.833 108.768,185.833 108.688 C 185.833 108.608,186.133 108.495,186.500 108.436 C 186.867 108.377,187.167 108.255,187.167 108.165 C 187.167 108.074,187.298 107.998,187.458 107.996 C 188.358 107.985,188.514 107.558,188.464 105.245 L 188.417 103.083 187.875 103.031 C 187.571 103.002,187.333 103.057,187.333 103.156 C 187.333 103.254,187.108 103.333,186.833 103.333 C 186.558 103.333,186.333 103.408,186.333 103.500 C 186.333 103.592,186.147 103.667,185.919 103.667 C 185.691 103.667,185.164 103.758,184.748 103.869 C 184.084 104.047,183.921 104.033,183.413 103.759 L 182.833 103.448 182.833 90.734 C 182.833 82.437,182.775 77.984,182.667 77.917 C 182.575 77.860,182.500 77.346,182.500 76.773 C 182.500 76.201,182.427 75.660,182.338 75.571 C 182.249 75.482,182.153 75.261,182.124 75.080 C 182.034 74.518,181.121 72.769,180.715 72.381 C 180.503 72.178,180.349 71.950,180.373 71.873 C 180.434 71.679,179.562 70.667,179.334 70.667 C 179.231 70.667,179.193 70.592,179.250 70.500 C 179.307 70.408,179.255 70.333,179.135 70.333 C 179.015 70.333,178.773 70.118,178.597 69.855 C 178.414 69.581,177.739 69.102,177.014 68.731 C 176.319 68.375,175.650 67.989,175.528 67.873 C 175.406 67.758,175.237 67.707,175.152 67.759 C 175.067 67.812,174.953 67.738,174.898 67.595 C 174.843 67.452,174.728 67.379,174.642 67.432 C 174.556 67.485,174.301 67.408,174.076 67.261 C 173.851 67.113,173.667 67.028,173.667 67.072 C 173.667 67.116,173.357 67.043,172.979 66.909 C 172.601 66.776,171.926 66.667,171.479 66.667 C 171.032 66.667,170.667 66.592,170.667 66.500 C 170.667 66.287,164.630 66.273,164.408 66.485 M213.833 66.500 C 213.833 66.592,213.645 66.667,213.414 66.667 C 213.005 66.667,212.503 66.884,212.000 67.280 C 211.862 67.388,211.688 67.473,211.612 67.468 C 211.536 67.464,211.113 67.694,210.672 67.980 C 210.231 68.266,209.802 68.500,209.720 68.500 C 209.538 68.500,206.667 71.467,206.667 71.654 C 206.667 71.727,206.404 72.065,206.083 72.405 C 205.762 72.745,205.500 73.131,205.500 73.262 C 205.500 73.393,205.444 73.500,205.375 73.500 C 205.306 73.501,205.100 73.726,204.917 74.000 C 204.371 74.818,204.333 74.642,204.333 71.239 C 204.333 69.350,204.262 67.845,204.164 67.662 C 203.946 67.254,195.848 67.164,195.515 67.566 C 195.384 67.723,195.344 73.602,195.374 88.268 L 195.417 108.750 199.833 108.750 L 204.250 108.750 204.293 96.841 C 204.320 89.235,204.395 84.871,204.501 84.766 C 204.592 84.674,204.667 84.282,204.667 83.893 C 204.667 83.504,204.747 83.137,204.845 83.076 C 204.943 83.016,204.981 82.857,204.930 82.724 C 204.879 82.591,204.902 82.523,204.982 82.572 C 205.131 82.664,205.403 81.755,205.345 81.359 C 205.326 81.235,205.417 81.010,205.547 80.859 C 205.778 80.589,206.040 80.048,206.069 79.783 C 206.077 79.709,206.241 79.484,206.435 79.283 C 206.628 79.081,206.836 78.756,206.898 78.560 C 206.960 78.364,207.627 77.668,208.380 77.014 C 210.152 75.475,210.114 75.503,210.232 75.621 C 210.288 75.677,210.333 75.635,210.333 75.528 C 210.333 75.421,210.390 75.347,210.458 75.363 C 210.720 75.424,212.000 74.980,212.000 74.827 C 212.000 74.561,214.226 74.634,214.593 74.911 C 214.771 75.046,215.085 75.158,215.292 75.161 C 215.498 75.164,215.667 75.246,215.667 75.343 C 215.667 75.440,215.736 75.477,215.820 75.425 C 215.904 75.373,216.092 75.449,216.237 75.594 C 216.381 75.739,216.500 75.803,216.500 75.736 C 216.500 75.669,216.631 75.724,216.792 75.856 C 216.952 75.989,217.308 76.206,217.583 76.338 C 217.858 76.469,218.413 76.860,218.815 77.205 C 219.218 77.551,219.645 77.833,219.764 77.833 C 219.883 77.833,220.088 77.986,220.218 78.172 C 220.722 78.892,221.397 78.679,221.879 77.648 C 222.034 77.317,222.274 76.951,222.414 76.836 C 222.553 76.720,222.667 76.522,222.667 76.394 C 222.667 76.170,222.986 75.505,223.175 75.333 C 223.399 75.131,224.000 74.022,224.000 73.812 C 224.000 73.685,224.142 73.491,224.317 73.382 C 224.686 73.152,225.167 72.256,225.167 71.798 C 225.167 71.613,225.242 71.527,225.347 71.592 C 225.461 71.662,225.507 71.563,225.472 71.324 C 225.405 70.866,224.530 69.833,224.209 69.833 C 224.082 69.833,223.789 69.608,223.557 69.333 C 223.326 69.058,223.073 68.872,222.995 68.920 C 222.917 68.968,222.699 68.841,222.509 68.638 C 222.320 68.435,222.042 68.251,221.891 68.229 C 221.740 68.207,221.572 68.119,221.517 68.034 C 221.359 67.791,220.387 67.335,220.271 67.451 C 220.214 67.509,220.167 67.484,220.167 67.396 C 220.167 67.308,219.735 67.100,219.208 66.935 C 218.681 66.769,218.120 66.566,217.961 66.483 C 217.557 66.274,213.833 66.289,213.833 66.500 M314.090 66.489 C 314.030 66.586,313.699 66.667,313.355 66.667 C 313.011 66.667,312.264 66.849,311.694 67.073 C 311.124 67.296,310.619 67.476,310.572 67.472 C 310.351 67.455,309.500 67.890,309.500 68.020 C 309.500 68.101,309.351 68.167,309.168 68.167 C 308.986 68.167,308.742 68.317,308.628 68.500 C 308.513 68.683,308.288 68.833,308.128 68.833 C 307.967 68.833,307.742 68.983,307.628 69.167 C 307.513 69.350,307.328 69.500,307.215 69.500 C 307.103 69.500,306.615 69.852,306.131 70.283 L 305.250 71.066 305.167 69.360 C 305.105 68.092,305.019 67.615,304.833 67.499 C 304.424 67.244,296.393 67.311,296.177 67.571 C 296.052 67.722,296.011 73.889,296.041 88.268 L 296.083 108.750 300.417 108.795 C 304.343 108.835,304.770 108.812,304.958 108.554 C 305.121 108.332,305.167 105.092,305.167 93.695 L 305.167 79.119 305.667 78.642 C 305.942 78.379,306.167 78.111,306.167 78.047 C 306.167 77.866,307.548 76.500,307.731 76.500 C 307.820 76.500,308.139 76.231,308.440 75.903 C 308.741 75.574,309.065 75.354,309.160 75.413 C 309.255 75.472,309.333 75.457,309.333 75.380 C 309.333 75.158,311.383 74.340,311.948 74.336 C 312.149 74.334,312.360 74.258,312.417 74.167 C 312.473 74.075,313.221 74.000,314.083 74.000 C 314.946 74.000,315.693 74.075,315.750 74.167 C 315.807 74.258,316.108 74.333,316.419 74.333 C 317.017 74.333,317.770 74.606,318.137 74.956 C 318.258 75.072,318.438 75.167,318.537 75.167 C 318.816 75.167,319.714 76.187,320.082 76.921 C 320.264 77.285,320.453 77.621,320.502 77.667 C 320.730 77.882,321.000 78.739,321.000 79.248 C 321.000 79.559,321.075 79.860,321.167 79.917 C 321.258 79.973,321.333 80.423,321.333 80.917 C 321.333 81.410,321.408 81.860,321.500 81.917 C 321.609 81.984,321.667 86.546,321.669 95.052 C 321.670 102.219,321.716 108.252,321.772 108.458 L 321.872 108.833 326.071 108.833 C 329.167 108.833,330.344 108.779,330.554 108.625 C 330.938 108.344,330.913 80.422,330.529 80.184 C 330.376 80.090,330.321 79.733,330.350 79.025 C 330.372 78.463,330.341 77.952,330.279 77.890 C 330.217 77.828,330.167 77.467,330.167 77.087 C 330.167 76.708,330.057 76.251,329.922 76.074 C 329.787 75.896,329.675 75.581,329.672 75.375 C 329.669 75.169,329.592 75.000,329.500 75.000 C 329.408 75.000,329.333 74.856,329.333 74.681 C 329.333 74.505,329.277 74.336,329.208 74.306 C 329.140 74.275,328.863 73.762,328.594 73.167 C 328.324 72.571,327.917 71.920,327.689 71.720 C 327.460 71.520,327.257 71.247,327.237 71.113 C 327.197 70.836,325.947 69.500,325.728 69.499 C 325.648 69.499,325.354 69.283,325.074 69.021 C 324.793 68.758,324.381 68.488,324.157 68.421 C 323.933 68.354,323.433 68.117,323.045 67.894 C 322.657 67.672,322.312 67.511,322.279 67.536 C 322.245 67.562,322.087 67.474,321.926 67.341 C 321.765 67.208,321.479 67.075,321.288 67.046 C 321.098 67.017,320.862 66.929,320.763 66.850 C 320.287 66.470,314.302 66.146,314.090 66.489 M276.848 67.566 C 276.717 67.723,276.677 73.602,276.708 88.268 L 276.750 108.750 281.167 108.750 L 285.583 108.750 285.626 88.365 C 285.654 74.751,285.612 67.875,285.498 67.663 C 285.279 67.254,277.182 67.163,276.848 67.566 M115.114 71.306 C 115.404 71.596,115.696 71.833,115.763 71.833 C 115.948 71.833,115.300 71.161,114.920 70.957 C 114.721 70.851,114.799 70.991,115.114 71.306 M381.333 72.083 C 381.333 72.313,381.398 72.500,381.477 72.500 C 381.556 72.500,381.585 72.313,381.541 72.083 C 381.497 71.854,381.432 71.667,381.397 71.667 C 381.362 71.667,381.333 71.854,381.333 72.083 M116.750 72.499 C 117.025 72.820,117.269 73.113,117.292 73.152 C 117.315 73.191,117.370 73.186,117.414 73.141 C 117.459 73.097,117.215 72.803,116.873 72.489 L 116.251 71.917 116.750 72.499 M252.167 74.167 C 252.167 74.258,252.443 74.333,252.780 74.333 C 253.440 74.333,254.300 74.560,255.055 74.933 C 255.315 75.062,255.671 75.167,255.847 75.167 C 256.023 75.167,256.167 75.246,256.167 75.343 C 256.167 75.440,256.236 75.477,256.320 75.425 C 256.404 75.373,256.583 75.440,256.717 75.574 C 256.851 75.708,257.007 75.771,257.063 75.714 C 257.120 75.658,257.167 81.359,257.167 88.384 L 257.167 101.157 252.180 101.204 C 248.923 101.234,247.204 101.192,247.222 101.083 C 247.238 100.990,246.756 100.895,246.125 100.867 C 245.506 100.840,245.000 100.763,245.000 100.695 C 245.000 100.628,244.798 100.556,244.551 100.536 C 244.304 100.515,244.060 100.439,244.009 100.366 C 243.958 100.292,243.617 100.095,243.250 99.927 C 242.883 99.759,242.448 99.480,242.282 99.307 C 242.116 99.134,241.910 99.036,241.823 99.089 C 241.737 99.143,241.667 99.107,241.667 99.010 C 241.667 98.913,241.560 98.833,241.431 98.833 C 241.301 98.833,241.169 98.769,241.139 98.690 C 241.065 98.499,240.364 97.595,239.783 96.942 C 239.526 96.653,239.201 96.154,239.061 95.833 C 238.920 95.513,238.737 95.120,238.653 94.961 C 238.569 94.801,238.500 94.525,238.500 94.345 C 238.500 94.166,238.425 93.973,238.333 93.917 C 238.242 93.860,238.167 93.635,238.167 93.417 C 238.167 93.198,238.092 92.973,238.000 92.917 C 237.908 92.860,237.833 92.383,237.833 91.857 C 237.833 91.331,237.762 90.829,237.676 90.742 C 237.421 90.486,237.373 85.853,237.625 85.757 C 237.757 85.706,237.833 85.341,237.833 84.765 C 237.833 84.263,237.900 83.812,237.981 83.762 C 238.113 83.680,238.190 83.399,238.402 82.234 C 238.436 82.042,238.542 81.742,238.635 81.567 C 238.729 81.393,238.930 80.987,239.083 80.667 C 239.630 79.518,239.865 79.144,240.098 79.055 C 240.227 79.005,240.333 78.873,240.333 78.761 C 240.333 78.552,242.635 76.167,242.836 76.167 C 243.032 76.167,244.079 75.616,244.185 75.457 C 244.241 75.373,244.316 75.322,244.352 75.344 C 244.388 75.365,244.732 75.222,245.118 75.025 C 245.504 74.828,245.973 74.667,246.160 74.667 C 246.347 74.667,246.500 74.592,246.500 74.500 C 246.500 74.408,246.875 74.333,247.333 74.333 C 247.792 74.333,248.167 74.258,248.167 74.167 C 248.167 74.065,248.944 74.000,250.167 74.000 C 251.389 74.000,252.167 74.065,252.167 74.167 M64.875 75.448 C 65.035 75.490,65.298 75.490,65.458 75.448 C 65.619 75.406,65.487 75.372,65.167 75.372 C 64.846 75.372,64.715 75.406,64.875 75.448 M67.333 75.940 C 67.333 76.146,68.291 76.545,68.542 76.444 C 68.664 76.394,68.627 76.354,68.452 76.346 C 68.289 76.339,67.970 76.212,67.744 76.064 C 67.518 75.916,67.333 75.860,67.333 75.940 M120.437 76.660 C 120.693 76.931,120.930 77.125,120.964 77.092 C 121.055 77.001,120.297 76.167,120.122 76.167 C 120.040 76.167,120.181 76.389,120.437 76.660 M384.185 77.333 C 384.176 77.616,384.551 78.167,384.753 78.167 C 384.825 78.167,384.771 78.035,384.631 77.875 C 384.491 77.715,384.335 77.471,384.285 77.333 C 384.203 77.111,384.192 77.111,384.185 77.333 M385.417 78.833 C 385.692 79.153,385.935 79.447,385.958 79.485 C 385.981 79.524,386.036 79.519,386.081 79.475 C 386.125 79.430,385.882 79.137,385.540 78.822 L 384.917 78.250 385.417 78.833 M111.000 79.111 C 111.000 79.196,111.307 79.562,111.683 79.925 C 112.058 80.287,112.429 80.733,112.506 80.917 C 112.622 81.193,112.647 81.201,112.656 80.964 C 112.662 80.806,112.292 80.290,111.833 79.817 C 111.375 79.344,111.000 79.027,111.000 79.111 M334.746 94.583 C 334.746 102.650,334.767 105.974,334.792 101.971 C 334.816 97.967,334.816 91.367,334.792 87.304 C 334.767 83.241,334.746 86.517,334.746 94.583 M15.292 82.125 C 18.615 82.150,24.052 82.150,27.375 82.125 C 30.698 82.100,27.979 82.079,21.333 82.079 C 14.688 82.079,11.969 82.100,15.292 82.125 M91.173 82.989 C 90.961 83.384,90.952 83.550,91.147 83.429 C 91.294 83.338,91.523 82.667,91.407 82.667 C 91.373 82.667,91.267 82.812,91.173 82.989 M81.539 83.333 C 81.539 83.654,81.573 83.785,81.615 83.625 C 81.657 83.465,81.657 83.202,81.615 83.042 C 81.573 82.881,81.539 83.012,81.539 83.333 M123.705 83.333 C 123.705 83.654,123.740 83.785,123.782 83.625 C 123.823 83.465,123.823 83.202,123.782 83.042 C 123.740 82.881,123.705 83.012,123.705 83.333 M90.367 85.033 C 90.257 85.143,90.179 85.500,90.193 85.825 L 90.220 86.417 90.290 85.834 C 90.329 85.514,90.439 85.157,90.534 85.042 C 90.755 84.776,90.631 84.769,90.367 85.033 M41.403 88.833 C 41.403 90.621,41.428 91.352,41.458 90.458 C 41.488 89.565,41.488 88.102,41.458 87.208 C 41.428 86.315,41.403 87.046,41.403 88.833 M115.125 86.833 C 115.382 87.121,115.419 90.927,115.167 91.083 C 115.075 91.140,115.003 91.313,115.006 91.468 C 115.010 91.673,115.077 91.637,115.250 91.333 C 115.629 90.670,115.596 87.114,115.208 86.820 C 114.960 86.632,114.948 86.634,115.125 86.833 M174.167 95.167 C 174.167 99.512,174.115 101.167,173.979 101.167 C 173.813 101.167,173.305 101.567,172.060 102.681 C 171.864 102.856,171.582 103.000,171.435 103.000 C 171.287 103.000,171.167 103.066,171.167 103.148 C 171.167 103.229,170.960 103.335,170.708 103.384 C 170.456 103.433,169.950 103.565,169.583 103.678 C 168.678 103.957,166.167 104.080,166.167 103.846 C 166.167 103.747,166.038 103.667,165.881 103.667 C 165.488 103.667,164.167 103.150,164.167 102.997 C 164.167 102.929,163.955 102.658,163.696 102.395 C 163.031 101.719,162.500 100.731,162.500 100.167 C 162.500 99.903,162.425 99.640,162.333 99.583 C 162.129 99.457,162.110 97.222,162.311 97.097 C 162.391 97.048,162.506 96.697,162.566 96.318 C 162.642 95.845,162.853 95.457,163.242 95.080 C 163.554 94.778,163.764 94.486,163.710 94.432 C 163.655 94.378,163.693 94.333,163.793 94.333 C 163.893 94.333,164.199 94.108,164.474 93.833 C 164.749 93.558,165.083 93.333,165.217 93.333 C 165.350 93.333,165.551 93.223,165.663 93.087 C 165.776 92.952,166.291 92.636,166.809 92.385 C 167.327 92.134,167.838 91.814,167.945 91.673 C 168.052 91.532,168.196 91.473,168.265 91.542 C 168.333 91.611,168.527 91.543,168.695 91.391 C 168.863 91.239,169.000 91.167,169.000 91.230 C 169.000 91.294,169.280 91.155,169.622 90.923 C 169.964 90.690,170.380 90.500,170.547 90.500 C 170.713 90.500,171.160 90.350,171.539 90.167 C 171.919 89.983,172.365 89.833,172.531 89.833 C 172.697 89.833,172.833 89.758,172.833 89.667 C 172.833 89.575,172.983 89.500,173.167 89.500 C 173.350 89.500,173.500 89.425,173.500 89.333 C 173.500 89.242,173.650 89.167,173.833 89.167 C 174.160 89.167,174.167 89.278,174.167 95.167 M90.209 92.250 C 90.211 92.617,90.245 92.747,90.285 92.540 C 90.324 92.332,90.323 92.032,90.281 91.873 C 90.239 91.714,90.207 91.883,90.209 92.250 M90.789 94.232 C 90.834 94.466,90.979 94.746,91.111 94.856 C 91.319 95.029,91.323 94.990,91.144 94.570 C 90.852 93.884,90.694 93.734,90.789 94.232 M81.539 94.667 C 81.539 94.987,81.573 95.119,81.615 94.958 C 81.657 94.798,81.657 94.535,81.615 94.375 C 81.573 94.215,81.539 94.346,81.539 94.667 M123.877 94.375 C 123.787 94.490,123.671 94.883,123.620 95.250 C 123.527 95.919,123.615 95.779,123.962 94.708 C 124.152 94.124,124.133 94.050,123.877 94.375 M387.763 96.487 C 387.506 96.754,387.336 97.073,387.385 97.195 C 387.454 97.368,387.477 97.364,387.487 97.176 C 387.494 97.043,387.702 96.725,387.948 96.467 C 388.194 96.210,388.358 96.000,388.312 96.000 C 388.267 96.000,388.019 96.219,387.763 96.487 M52.843 96.782 C 53.015 97.241,54.456 98.766,54.591 98.632 C 54.628 98.594,54.286 98.196,53.829 97.746 C 53.373 97.297,53.000 96.837,53.000 96.724 C 53.000 96.612,52.925 96.473,52.834 96.417 C 52.728 96.352,52.731 96.484,52.843 96.782 M112.080 97.670 C 111.724 98.035,111.488 98.333,111.555 98.333 C 111.725 98.333,112.883 97.161,112.798 97.075 C 112.759 97.037,112.437 97.305,112.080 97.670 M43.463 99.323 C 43.503 99.593,43.696 99.949,43.892 100.115 C 44.247 100.414,44.247 100.413,43.958 100.070 C 43.798 99.880,43.667 99.523,43.667 99.279 C 43.667 99.034,43.605 98.833,43.529 98.833 C 43.453 98.833,43.423 99.054,43.463 99.323 M110.504 99.272 C 110.276 99.489,110.148 99.667,110.219 99.667 C 110.393 99.667,111.077 99.020,110.988 98.940 C 110.949 98.905,110.731 99.054,110.504 99.272 M121.754 99.658 C 121.614 99.929,121.500 100.248,121.501 100.367 C 121.502 100.578,121.824 100.041,122.045 99.458 C 122.223 98.991,122.032 99.122,121.754 99.658 M55.785 99.646 C 56.169 100.015,56.427 100.120,56.251 99.834 C 56.194 99.743,55.984 99.584,55.782 99.480 L 55.417 99.292 55.785 99.646 M74.739 103.417 C 74.739 105.708,74.762 106.669,74.791 105.551 C 74.820 104.434,74.820 102.559,74.791 101.385 C 74.763 100.211,74.739 101.125,74.739 103.417 M63.583 101.833 L 61.417 101.932 63.625 101.966 C 65.009 101.987,65.833 101.938,65.833 101.833 C 65.833 101.742,65.815 101.682,65.792 101.701 C 65.769 101.719,64.775 101.779,63.583 101.833 M100.724 101.872 C 100.830 101.940,101.742 101.985,102.750 101.972 C 104.821 101.947,104.542 101.867,102.140 101.797 C 101.255 101.771,100.618 101.805,100.724 101.872 M380.865 104.340 C 380.664 104.527,380.500 104.727,380.500 104.786 C 380.500 104.844,380.688 104.715,380.917 104.500 C 381.307 104.133,381.404 104.000,381.281 104.000 C 381.253 104.000,381.065 104.153,380.865 104.340 M61.208 110.291 C 62.010 110.321,63.323 110.321,64.125 110.291 C 64.927 110.260,64.271 110.235,62.667 110.235 C 61.063 110.235,60.406 110.260,61.208 110.291 M101.042 110.291 C 101.844 110.321,103.156 110.321,103.958 110.291 C 104.760 110.260,104.104 110.235,102.500 110.235 C 100.896 110.235,100.240 110.260,101.042 110.291 M321.000 114.708 C 321.000 114.858,321.080 115.030,321.178 115.090 C 321.464 115.267,321.492 115.109,321.236 114.760 C 321.039 114.489,321.000 114.481,321.000 114.708 M323.600 120.667 C 324.034 121.125,324.441 121.500,324.506 121.500 C 324.570 121.500,324.274 121.125,323.849 120.667 C 323.423 120.208,323.015 119.833,322.942 119.833 C 322.870 119.833,323.166 120.208,323.600 120.667 " stroke="none" fill="#7c9c1c" fill-rule="evenodd"></path></g></svg>